<?xml version="1.0" encoding="utf-8"?>
<!-- Generator: Adobe Illustrator 27.1.0, SVG Export Plug-In . SVG Version: 6.00 Build 0)  -->
<svg version="1.1" id="Laag_1" xmlns="http://www.w3.org/2000/svg" xmlns:xlink="http://www.w3.org/1999/xlink" x="0px" y="0px"
	 viewBox="0 0 922.67 479.19" style="enable-background:new 0 0 922.67 479.19;" xml:space="preserve">
<style type="text/css">
	.st0{fill:none;stroke:#000000;stroke-width:2;stroke-linecap:round;stroke-linejoin:round;stroke-miterlimit:10;}
</style>
<g>
	<path class="st0" d="M137.28,168.92c-4.14,3.4-7.34,7.69-11.02,11.53c-2.2,2.3-4.24,4.75-6.87,6.63
		c-3.51-5.33-7.13-10.34-11.14-15.05c-0.54-0.64-1.18-1.09-1.93-1.43"/>
	<path class="st0" d="M728.73,170.6c2.1,0.94,3.22,2.89,4.53,4.58c2.66,3.44,5.2,6.97,7.67,10.56c0.67,0.97,1.34,1.36,2.68,1.01
		c0,4,0,7.84,0,11.68"/>
	<path class="st0" d="M875.33,49.46c3.44,1.96,6.36,4.75,10.08,6.23c7.4,2.94,14.79,4.1,22.34,0.31c1.64-0.82,2.49-2.41,4.05-3.18"
		/>
	<path class="st0" d="M732.33,399.46c-0.93,0.23-1.47,0.91-1.92,1.68c-3.19,5.44-6.96,10.5-10.38,15.79
		c-0.79,1.23-2.25,2.07-3.06,3.4"/>
	<path class="st0" d="M806.47,211.38c0,50.62-0.06,101.23,0.12,151.85c0.01,3.88,0.57,7.82,0.6,11.99c-31.19,0-62.39,0-93.81,0
		c-0.05-4.24-0.17-8.72-0.41-13.2c-0.49-8.86-0.54-17.75-0.8-26.62c-0.54-18.31-0.27-36.62-0.14-54.93
		c0.05-7.11,0.05-14.25,0.46-21.35c0.58-9.92,0.02-19.85,0.66-29.75c0.39-6,0.09-12,0.22-17.99"/>
	<path class="st0" d="M649.79,388.18c0,9.52,0,19.03,0,28.55"/>
	<path class="st0" d="M256.77,444.55c-1.49,3.22-1.88,6.78-3.13,10.07c-1.06,2.79-1.39,5.96-4.07,7.92"/>
	<path class="st0" d="M149.28,388.18c0,12.07,0,24.15,0,36.22"/>
	<path class="st0" d="M604.68,169.88c4.09,2.25,6.02,6.46,8.9,9.82c1.98,2.3,3.17,5.19,5.5,7.21"/>
	<path class="st0" d="M713.61,389.14c0.44,6.72,0.37,13.44-0.01,20.15c-0.15,2.64-0.79,5.26-0.23,7.92"/>
	<path class="st0" d="M493.11,387.94c0,10.87,0,21.75,0,32.62"/>
	<path class="st0" d="M181.91,389.14c-0.69,12.07-0.84,24.14-0.72,36.22"/>
	<path class="st0" d="M41.07,170.6c2.1,0.94,3.22,2.89,4.53,4.58c2.66,3.44,5.2,6.98,7.67,10.56c0.67,0.97,1.34,1.36,2.68,1.01
		c0,4,0,7.84,0,11.68"/>
	<path class="st0" d="M821.11,56.65c-0.56,1.12-1.03,2.3-1.7,3.35c-2.36,3.69-4.88,5.51-10.54,3.12c-1.22-0.51-2.4-1.11-3.6-1.67"/>
	<path class="st0" d="M367.62,389.14c0.69,3.44,0.15,6.89-0.05,10.31c-0.31,5.05-0.3,10.09,0.1,15.11
		c0.28,3.45,0.04,6.88,0.19,10.32"/>
	<path class="st0" d="M803.83,417.45c-6.48-0.24-12.96-0.79-19.43-0.65c-12,0.26-23.99,0.61-35.99,0.96
		c-2.07,0.06-4.01,0.2-6.02-0.48c-0.91-0.31-2.09-0.27-3.18,0.2c-1.1-1.62,1.64-2.99,0.17-4.7c-2.06,0.62-3.88,1.95-5.85,2.98
		c-1.06,0.56-2.15,0.85-3.12-0.23"/>
	<path class="st0" d="M386.82,168.92c-2.95,3.51-6.42,6.53-9.41,10.03c-1.83,2.14-3.82,4.17-5.7,6.29
		c-0.78,0.88-1.66,1.48-2.89,1.43"/>
	<path class="st0" d="M680.74,387.94c0,9.28,0,18.55,0,27.83"/>
	<path class="st0" d="M732.57,399.94c0.31,2.14-0.71,4.03-1.23,5.99c-0.83,3.07-1.79,6.12-2.9,9.11c-0.37,0.99,0.26,2.03-0.43,2.9"
		/>
	<path class="st0" d="M899.81,388.18c0,11.75,0,23.51,0,35.26"/>
	<path class="st0" d="M586.45,376.19c-0.06-1.7,1.16-0.67,1.68-0.68c9.12-0.06,18.23-0.04,27.35-0.04c10.64,0,21.28,0.07,31.91-0.02
		c11.12-0.1,22.24-0.07,33.35-0.1c10.39-0.03,20.8-0.05,31.19,0.16c0.53,0.01,1.75-1.02,1.68,0.68"/>
	<path class="st0" d="M539.42,169.88c4.09,2.25,6.09,6.4,8.87,9.84c1.23,1.52,2.34,3.12,3.41,4.76c0.66,1.02,1.17,2.46,3.09,2.02
		c1.17-0.27,1.2,0.93,1.19,1.85c-0.02,3.36-0.01,6.72-0.01,10.08"/>
	<path class="st0" d="M907.96,375.47c-11.6,0-23.19,0-34.79,0"/>
	<path class="st0" d="M738.09,61.93c-4.1,1.47-8.15,2.15-12-0.71c-0.89-0.66-1.81-0.09-2.62,0.25c-8.19,3.37-15.67-0.33-18.77-6.95
		c-0.35-0.74-0.52-2.01-1.87-1.94"/>
	<path class="st0" d="M198.71,168.92c-4.14,3.4-7.33,7.7-11.02,11.53c-2.16,2.24-4.06,4.75-6.73,6.46"/>
	<path class="st0" d="M273.81,184.99c1.01,2.16,0.84,4.48,0.66,6.71c-0.18,2.25-0.11,4.48-0.18,6.72"/>
	<path class="st0" d="M585.97,389.14c-0.55,3.83-0.24,7.68-0.2,11.51c0.05,4.89-0.86,9.74-0.52,14.63"/>
	<path class="st0" d="M416.57,169.88c4.09,2.25,6.13,6.37,8.86,9.85c1.85,2.35,3.76,4.68,5.06,7.42"/>
	<path class="st0" d="M762.32,433.52c1.24,0.43,0.95,1.49,0.95,2.4c0.02,3.52,0.01,7.04,0.01,10.56"/>
	<path class="st0" d="M17.08,451.27c-0.7,0.22-1.07,0.74-0.95,1.44c0.68,3.89,0.62,7.85,1.05,11.75c0.41,3.69,0.08,7.39,0.61,11.05"
		/>
	<path class="st0" d="M17.32,451.75c1.44,1.93,1.8,4.3,2.68,6.46c1.53,3.74,3.27,7.4,5.03,11.04c0.45,0.94,0.61,1.93,0.93,2.89"/>
	<path class="st0" d="M618.84,387.94c0,8.64,0,17.27,0,25.91"/>
	<path class="st0" d="M142.32,424.4c10.56,0.48,21.11,1.01,31.67,1.41c4,0.15,8,0.1,12,0.45c5.67,0.5,11.39,0.33,17.03,1.24
		c2.4,0.39,3.44-0.39,3.81-2.87c0.2-1.32,0.75-2.53,0.99-3.83"/>
	<path class="st0" d="M523.58,182.84c0.74,1.52,0.62,3.22,0.65,4.8c0.06,3.61,0.25,7.2,0.55,10.79"/>
	<path class="st0" d="M355.15,169.88c4.09,2.25,6.09,6.41,8.87,9.84c0.83,1.02,1.75,2,2.37,3.13c1,1.84,2.08,3.45,1.64,6.01
		c-0.53,3.08,0.16,6.37,0.32,9.57"/>
	<path class="st0" d="M212.15,388.18c0,6.8,0,13.59,0.01,20.39c0,0.8-0.15,1.63,0.23,2.4"/>
	<path class="st0" d="M771.92,186.91c2.62-1.17,3.59-0.68,3.33,1.92c-0.32,3.2-0.12,6.4-0.21,9.6"/>
	<path class="st0" d="M106.09,449.83c-0.97,2.33-0.74,4.78-0.71,7.2c0.07,6.16-0.29,12.33,0.47,18.47"/>
	<path class="st0" d="M136.8,169.88c4.09,2.25,6.12,6.38,8.86,9.85c1.63,2.07,3.11,4.27,4.63,6.37c-0.3,0.76-0.72,1.17-1.49,1.06"/>
	<path class="st0" d="M823.99,427.28c-1.48,1.91-1.44,4.32-2.15,6.48c-1.71,5.23-2.66,10.76-6.01,15.35"/>
	<path class="st0" d="M649.79,198.43c0-3.52-0.03-7.04,0.02-10.55c0.02-1.45-0.71-1.01-1.46-0.72"/>
	<path class="st0" d="M433.37,185.95c1.13,0.74,0.84,1.93,0.68,2.87c-0.54,3.19-0.41,6.4-0.44,9.6"/>
	<path class="st0" d="M762.08,434c-1.47,2.95-1.62,6.27-2.61,9.36c-0.83,2.61-1.72,5.19-2.87,7.68c-0.43,0.94-1.19,1.24-1.96,1.66"
		/>
	<path class="st0" d="M106.57,451.27c1.19,2.67,1.09,5.61,1.63,8.4c1.14,5.84,2.06,11.72,4.37,17.26c0.07,0.16,0,0.32-0.24,0.48"/>
	<path class="st0" d="M10.12,169.88c4.09,2.25,6.12,6.38,8.86,9.85c1.53,1.93,2.86,4.01,4.35,5.97c0.63,0.83-0.15,0.89-0.5,1.21"/>
	<path class="st0" d="M155.52,450.31c-0.33-0.51-0.37-1.1-0.48-1.68c-1.07-5.57-5.01-8.83-10.79-8.86
		c-1.83-0.01-3.93-0.62-5.04,1.66"/>
	<path class="st0" d="M921.64,198.91c-17.04,0-34.07,0-51.11,0c-0.96,0-1.94-0.11-2.88,0.24"/>
	<path class="st0" d="M860.94,58.57c1.43,3.55,3.23,6.79,5.94,9.65c6.15,6.5,12.67,5.7,19.72,2.55c0.66-0.3,1.22-0.89,1.93-1.17"/>
	<path class="st0" d="M778.88,427.28c-1.26,2.41-1.34,5.14-2.15,7.68c-0.46,1.45-0.64,2.98-1.45,4.31"/>
	<path class="st0" d="M874.61,387.46c9.52,0,19.04,0,28.55,0"/>
	<path class="st0" d="M228.46,169.88c4.09,2.25,6.12,6.38,8.86,9.85c1.53,1.93,2.89,3.99,4.34,5.98c0.42,0.58,0.97,1,1.68,1.2"/>
	<path class="st0" d="M417.05,168.92c-4.06,3.31-7.2,7.52-10.77,11.3c-1.9,2.02-3.86,3.98-5.79,5.97"/>
	<path class="st0" d="M921.64,101.03c0.14,0.85-0.22,1.47-0.69,2.18c-3.63,5.48-7.93,10.44-12.32,15.29
		c-7.24,8-13.61,16.66-20.07,25.26c-4.24,5.64-8.93,10.96-12.27,17.25c-2.54,4.78-4.95,9.59-7.11,14.57
		c-1.41,3.24-1.69,6.34-1.77,9.66c-0.65,28.3-0.56,56.61-0.43,84.92c0.06,12.88,0.44,25.75,0.97,38.62
		c0.39,9.52,0.9,19.03,1.42,28.55c0.48,8.72,1.16,17.44,1.93,26.15c0.3,3.36,0.51,6.74,0.98,10.07c0.57,4.07,0.81,8.17,1.36,12.25
		c1.68,12.38,3.53,24.72,7.24,36.69c0.78,2.51,1.47,5.06,2.62,7.44"/>
	<path class="st0" d="M289.88,169.88c4.09,2.25,6.12,6.38,8.86,9.85c1.53,1.93,2.91,3.98,4.33,5.99c0.48,0.68,1.04,1.12,1.93,0.96"
		/>
	<path class="st0" d="M664.19,430.64c-0.76,0.44-0.67,1.18-0.74,1.92c-0.53,5.36-1.08,10.72-1.68,16.07
		c-0.09,0.82-0.03,1.86-1.18,2.16"/>
	<path class="st0" d="M608.52,392.02c0.64,1.24,0.08,2.56,0.21,3.84c0.42,4,1.74,7.81,2.51,11.73c0.6,3.05,1.99,5.93,3.03,8.89"/>
	<path class="st0" d="M921.64,210.9c-6.4,0-12.8,0-19.2,0c-9.92,0-19.83,0.01-29.75-0.01c-1.12,0-2.24-0.15-3.36-0.23"/>
	<path class="st0" d="M885.89,169.88c4.09,2.25,6.07,6.42,8.88,9.83c1.5,1.82,2.7,3.85,4.09,5.75c1.04,1.42,1.22,2.81,1.02,4.58
		c-0.31,2.76-0.08,5.59-0.08,8.39"/>
	<path class="st0" d="M759.68,168.92c-5.92,5.54-11.21,11.67-16.56,17.75"/>
	<path class="st0" d="M685.78,10.12c5.56,4.29,11.54,7.69,18.46,9.41c4.42,1.09,8.67,0.53,12.97-0.3c0.58-0.11,1.12-0.49,1.68,0.01"
		/>
	<path class="st0" d="M23.79,186.43c0.92,0.56,1.09,1.43,0.96,2.4c-0.45,3.19-0.15,6.4-0.24,9.6"/>
	<path class="st0" d="M118.57,186.67c-0.97,0.58-0.71,1.54-0.71,2.4c-0.01,3.12-0.01,6.24-0.01,9.36"/>
	<path class="st0" d="M71.54,169.88c4.09,2.25,6.12,6.38,8.86,9.85c1.53,1.93,2.81,4.06,4.36,5.97c1.57,1.94,3.18,2.01,5,0.24
		c2.51-2.45,4.87-5.07,7.15-7.72c2.78-3.23,6.04-5.98,8.71-9.3"/>
	<path class="st0" d="M759.2,169.88c4.09,2.25,6.07,6.42,8.88,9.83c1.69,2.04,3.07,4.29,4.55,6.48"/>
	<path class="st0" d="M666.11,169.88c4.11,2.14,5.98,6.35,8.84,9.63c2.03,2.32,3.24,5.28,5.56,7.4c0.5,0.46,0.21,0.98,0.21,1.45
		c0.04,3.36,0.02,6.72,0.02,10.08"/>
	<path class="st0" d="M595.57,415.53c0.07,0.95-0.66,0.46-0.96,0.45c-3.12-0.07-6.3-0.4-9.35-0.28c-4.96,0.2-9.92,0.36-14.88,0.57
		c-7.29,0.31-14.58,0.51-21.84,1.38c-2.46,0.29-4.98,0.33-7.44,0.4c-4.09,0.11-8.16,0.46-12.23,0.7
		c-5.52,0.33-11.06,0.66-16.57,1.24c-2.92,0.31-5.91,0.55-8.87,0.55c-3.52-0.01-7.08,0.24-10.54,0.47
		c-5.76,0.39-11.53,0.64-17.29,1.05c-4.32,0.31-8.66,0.14-12.95,0.5c-8.71,0.73-17.44,0.9-26.15,1.45
		c-9.76,0.61-19.54,0.36-29.28,1.31c-2.93,0.29-5.91,0.03-8.87,0.05c-5.92,0.02-11.83,0.85-17.75,0.46
		c-13.91-0.92-27.83-0.3-41.75-0.44c-9.12-0.09-18.24-0.24-27.35,0.04c-10.32,0.32-20.63,0.71-30.95,0.97
		c-7.84,0.2-15.69,0.44-23.51,0.97c-9.69,0.66-19.36,0.14-29.04,0.38c-0.91,0.02-1.48-0.15-2.26-1.11
		c-3.45-4.2-7.01-8.29-9.75-13.03c-0.65-1.12-2.62-1.47-1.91-3.37"/>
	<path class="st0" d="M164.16,473.58c1.19-4.7,2.55-9.36,3.4-14.15c0.21-1.22,0.07-2.41,0.22-3.6c0.09-0.74-0.13-1.37-0.75-1.65
		c-0.67-0.3-1.2,0.17-1.67,0.68c-2.11,2.28-3.84,4.83-5.53,7.43c-2.77,4.26-5.67,8.43-8.56,12.71c0.55,0.38,0.96,0.68,1.38,0.97"/>
	<path class="st0" d="M889.73,17.31c7.68,9.4,16.84,9.3,27.34,4.52c1.49-0.68,2.73-1.89,4.1-2.83c0.55-0.38,0.51-0.9,0.48-1.44"/>
	<path class="st0" d="M111.85,376.19c0.5,0.99,1.39,1.66,2.17,2.38c2.23,2.05,3.09,4.48,2.4,7.46c-0.13,0.57-0.12,1.23,0.46,1.67"/>
	<path class="st0" d="M210.71,187.15c2.1-1.32,1.76,0.41,1.65,1.44c-0.35,3.28-0.15,6.56-0.21,9.84"/>
	<path class="st0" d="M760.64,30.27c-1.83-1.36-4-2.28-5.28-4.32c-0.6-0.95-1.4-0.47-2.16-0.24c-9.25,2.85-17.72,1.45-25.16-4.84
		c-1.53-1.3-2.7-3.08-3.84-4.78c-0.69-1.03-1.42-1.93-2.44-2.61"/>
	<path class="st0" d="M478,169.88c4.09,2.25,6.12,6.38,8.86,9.85c1.53,1.93,2.89,3.99,4.34,5.98c0.42,0.58,0.97,1,1.68,1.2"/>
	<path class="st0" d="M149.52,187.39c-0.33,3.67-0.22,7.36-0.24,11.03"/>
	<path class="st0" d="M636.35,168.92c-2.86,3.44-6.17,6.48-9.2,9.76c-2.49,2.69-4.55,5.84-7.61,7.97c-0.9,0.63-0.69,1.4-0.69,2.18
		c-0.02,3.2-0.01,6.4-0.01,9.6"/>
	<path class="st0" d="M212.38,411.93c-0.52,2.79-0.1,5.6-0.24,8.4c-0.04,0.88,0.17,1.79-0.24,2.64"/>
	<path class="st0" d="M185.03,469.98c-2.62,0.62-5.06,1.78-7.66,2.48c-1.02,0.27-1.86,0.48-2.36-0.35
		c-0.41-0.68,0.11-1.52,0.67-2.12c0.46-0.5,0.96-0.96,1.44-1.44"/>
	<path class="st0" d="M640.19,12.99c-7.6,3.98-14.91,2.52-22.06-1.22c-2.91-1.52-5.26-3.81-7.69-5.98"/>
	<path class="st0" d="M555.98,211.38c0,54.53,0,109.07,0,163.6"/>
	<path class="st0" d="M601.8,411.69c1.33,1,1.88,2.59,2.88,3.84"/>
	<path class="st0" d="M763.52,32.19c5.11,6.3,10.37,12.45,16.05,18.26c7.31,7.47,14.22,15.24,18.35,25.13
		c1.54,3.69,2.62,7.31,2.85,11.31c0.24,4.17,0.92,8.32,1.38,12.48c0.42,3.84,0.83,7.67,1.2,11.51c0.58,6,1.17,11.99,1.67,17.99
		c0.46,5.43,0.83,10.87,1.21,16.31c0.26,3.76,0.52,7.51,0.72,11.27c0.28,5.36,0.32,10.73,0.79,16.07c0.27,3.13-0.19,6.26,0.4,9.37
		c0.09,0.48-0.05,1.14-0.47,1.41c-1.59,1.03-2.52,2.83-4.38,3.68c-3.48-4.89-6.89-9.82-10.72-14.45c-0.67-0.81-1.43-1.49-2.4-1.92"
		/>
	<path class="st0" d="M525.26,211.38c0.95,16.62,0.79,33.26,0.67,49.9c-0.07,9.6-0.24,19.19-0.17,28.79
		c0.07,10.41,0.7,20.8,1.34,31.19c0.24,3.9,0.36,7.83,0.56,11.75c0.72,14.07,0.42,28.15,0.47,42.22"/>
	<path class="st0" d="M649.79,211.62c0,54.45,0,108.91,0,163.36"/>
	<path class="st0" d="M399.78,211.62c0,54.45,0,108.91,0,163.36"/>
	<path class="st0" d="M813.67,48.98c-4.62,3-9.29,3.27-14.17,0.5c-7.67-4.37-13.62-10.6-19.2-17.28c-2.26-2.7-4.05-5.79-6.7-8.17"/>
	<path class="st0" d="M305.48,211.38c0,54.53,0,109.07,0,163.6"/>
	<path class="st0" d="M72.02,168.92c-5.92,5.54-11.21,11.67-16.56,17.75"/>
	<path class="st0" d="M134.41,477.9c-0.5-0.21-1.05-0.49-1.4-0.77c-1.55-1.27-2.84-1.3-4.13,0.29c-0.69,0.86-1.44,1.2-2.15,0"/>
	<path class="st0" d="M808.87,210.9c-10.08,0-20.16-0.08-30.23,0.02c-11.68,0.12-23.36,0.17-35.03,0.1
		c-20.08-0.11-40.15,0.01-60.23-0.11c-10.4-0.06-20.8-0.09-31.19,0.01c-11.12,0.1-22.24,0.17-33.35,0.1
		c-20.08-0.13-40.15-0.05-60.23-0.09c-11.12-0.02-22.24,0.17-33.35,0.09c-20.08-0.14-40.15-0.06-60.23-0.09
		c-10.64-0.02-21.28,0.05-31.91,0.08c-10.31,0.02-20.64-0.11-30.95-0.08c-11.28,0.03-22.56,0.02-33.83,0.08
		c-9.67,0.05-19.36-0.11-29.03-0.08c-11.28,0.04-22.56,0.15-33.83,0.08c-19.76-0.12-39.51,0.01-59.27-0.11
		c-10.4-0.06-20.79-0.01-31.19-0.01c-20.95,0-41.91-0.07-62.86,0.03c-11.44,0.05-22.88,0.16-34.31,0.09
		c-19.76-0.12-39.51,0.01-59.27-0.11c-10.4-0.06-20.79-0.01-31.19-0.01c-8.72,0-17.44,0-26.15,0"/>
	<path class="st0" d="M212.15,423.92c1.04,1.28,2.08,2.56,3.12,3.84"/>
	<path class="st0" d="M337.15,187.39c-0.33,3.67-0.22,7.36-0.24,11.03"/>
	<path class="st0" d="M791.35,10.36c-0.47,1.09-0.04,2.26-0.26,3.36c-1,5.18-4.62,8.01-10.3,8.16c-4.38,0.12-8.45-0.76-11.74-3.86
		c-1.16-1.09-1.75-1.35-2.97,0.2c-2.15,2.74-4.99,4.8-8.32,6.07c-0.76,0.29-1.45,0.78-2.17,1.18"/>
	<path class="st0" d="M322.28,170.6c2.1,0.94,3.24,2.88,4.52,4.58c2.55,3.38,5.12,6.76,7.5,10.27c1.5,2.21,3.08,2.31,5,0.49
		c3.98-3.78,7.56-7.96,11.26-12c1.61-1.76,3.22-3.5,5.06-5.01"/>
	<path class="st0" d="M243.58,211.38c0,54.53,0,109.07,0,163.6"/>
	<path class="st0" d="M273.81,211.38c-1.08,32.78-0.08,65.57-0.55,98.35c-0.14,9.91-0.25,19.85-0.97,29.74
		c-0.46,6.33,0.02,12.66-0.48,18.95c-0.46,5.84-0.05,11.71-0.88,17.52"/>
	<path class="st0" d="M117.85,398.5c0-3.61,0-7.21,0-10.82c-0.34-0.07-0.68-0.13-1.03-0.2c-1.99,4.69-4.61,9.12-5.63,14.49
		c7.72-2.2,14.64-1.93,18.39,7.8c0.77,1.99,0.83,4.11,0.74,6.23c-0.07,1.68,0.18,2.63,2.41,2.23c3.54-0.62,8.87,2.95,9.21,6.42
		c0.2,2.09-0.49,4.48-1.59,6.44c-0.83,1.49-1.22,3.14-2.11,4.59c-0.39,0.64-0.39,1.28,0,1.92"/>
	<path class="st0" d="M462.16,211.62c0,54.45,0,108.91,0,163.36"/>
	<path class="st0" d="M184.07,211.38c0,10.56,0,21.11,0,31.67c0,9.92,0.11,19.83-0.03,29.75c-0.22,15.35-0.54,30.71-0.99,46.06
		c-0.1,3.52-0.1,7.04-0.18,10.56c-0.32,13.59-0.21,27.19-0.26,40.78c-0.01,1.92-0.3,3.84-0.46,5.76"/>
	<path class="st0" d="M886.85,423.44c-1.49,0.05-2.92-0.22-4.32-0.72"/>
	<path class="st0" d="M368.34,211.38c-1.15,54.61,0.12,109.23,0,163.84"/>
	<path class="st0" d="M336.91,211.62c0,54.45,0,108.91,0,163.36"/>
	<path class="st0" d="M88.1,211.38c0.24,9.6,0.02,19.21-0.57,28.78c-0.58,9.44-1.09,18.88-1.77,28.32
		c-0.35,4.78-0.25,9.59-0.47,14.39c-0.7,15.34-1.36,30.69-1.04,46.06c0.08,3.92,0.21,7.84,0.47,11.76
		c0.27,3.92-0.19,7.84-0.45,11.75"/>
	<path class="st0" d="M916.84,170.6c2.24,1.59,4.38,3.25,4.8,6.24"/>
	<path class="st0" d="M1.24,198.91c17.36,0,34.71,0.06,52.07-0.02c11.6-0.06,23.2-0.17,34.79-0.1c19.44,0.12,38.87,0,58.31,0.11
		c11.36,0.07,22.71,0.01,34.07,0.01c9.76,0,19.52,0.07,29.27-0.02c11.28-0.1,22.56-0.18,33.83-0.11
		c19.76,0.13,39.51-0.01,59.27,0.11c10.56,0.06,21.12,0.08,31.67-0.01c11.28-0.1,22.56-0.05,33.83-0.1
		c9.43-0.04,18.87,0.04,28.31,0.1c11.52,0.08,23.03,0.09,34.55,0c10.4-0.08,20.8-0.07,31.19-0.1c9.51-0.02,19.04,0.1,28.55,0.08
		c11.28-0.02,22.56-0.16,33.83-0.09c20.4,0.13,40.79,0.05,61.18,0.09c10.96,0.02,21.92-0.04,32.87-0.08
		c9.51-0.04,19.04,0.1,28.55,0.08c11.12-0.03,22.24-0.16,33.35-0.09c20.08,0.14,40.15-0.01,60.23,0.11
		c10.48,0.06,20.96,0.08,31.43-0.01c11.36-0.1,22.72,0.33,34.07-0.17c0.59-0.03,1.27,0.18,1.92,0.19"/>
	<path class="st0" d="M198.23,169.88c4.09,2.25,6.12,6.38,8.86,9.85c1.6,2.02,3.05,4.15,4.57,6.23"/>
	<path class="st0" d="M743.61,387.94c0,8.8,0,17.59,0,26.39c0,0.99,0.08,1.99-0.48,2.88"/>
	<path class="st0" d="M831.18,440.72c1.11,0.95,0.75,2.48,1.44,3.6"/>
	<path class="st0" d="M779.36,424.16c0.07,3.53,1.27,6.79,2.4,10.08"/>
	<path class="st0" d="M460.24,187.15c1.48-0.94,1.96-0.39,1.93,1.2c-0.05,3.36-0.01,6.72-0.01,10.08"/>
	<path class="st0" d="M159.6,451.75c1.89,1.25,0.48,2.93,0.38,4.31c-0.11,1.51-0.79,3.02-1.1,4.57"/>
	<path class="st0" d="M602.28,415.53c-1.51,0.77-3.31,0.08-4.8,0.96"/>
	<path class="st0" d="M434.33,389.62c0.9,11.34,0.51,22.72,1.2,34.06"/>
	<path class="st0" d="M601.32,409.29c0.45,2.1-0.56,4.14-0.24,6.24"/>
	<path class="st0" d="M124.81,476.94c-2.6-2.01-4.7-4.45-6.47-7.2c-0.36-0.56-0.5-1.43-1.44-1.18c-0.96,0.26-0.98,1.09-0.97,1.9
		c0.02,1.3-0.47,2.52-0.55,3.83c-0.08,1.33-0.55,2.85-2.57,2.4"/>
	<path class="st0" d="M49.47,449.35c-1.36,2.07-0.81,4.51-1.08,6.73c-0.54,4.45-0.01,8.96,0.6,13.36c-2.4,1.77-4.49,3.93-7.42,4.88
		c-4.13,1.34-8.19,0.85-12.23-0.29c-0.64-0.18-1.37,0.02-1.93-0.45"/>
	<path class="st0" d="M886.37,168.92c-5.85,5.46-11.06,11.5-16.32,17.51"/>
	<path class="st0" d="M448.96,170.6c1.62,0.5,2.39,1.96,3.33,3.14c3.33,4.16,6.63,8.35,9.38,12.93"/>
	<path class="st0" d="M86.9,187.63c1.12,3.52,1.36,7.13,1.2,10.8"/>
	<path class="st0" d="M868.85,193.63c0,1.12,0,2.24,0,3.36"/>
	<path class="st0" d="M527.9,389.14c-0.36,9.75-0.21,19.51-0.24,29.27"/>
	<path class="st0" d="M15.16,444.55c0.61,2.05,1.15,4.11,1.44,6.24"/>
	<path class="st0" d="M806.47,186.43c0,4,0,8,0,11.99"/>
	<path class="st0" d="M658.67,447.91c1.43,2.11,2.61,4.32,2.64,6.96"/>
	<path class="st0" d="M462.16,388.18c0,10.56-0.01,21.11,0.02,31.67c0,0.79-0.28,1.64,0.22,2.4"/>
	<path class="st0" d="M916.12,168.92c-5.36,5.76-10.72,11.51-16.08,17.27"/>
	<path class="st0" d="M184.07,470.7c0.12,1.32-1.36,1.89-1.49,3.33c1.94,1.4,4.36,0.93,6.53,1.47"/>
	<path class="st0" d="M10.6,168.92c-3.65,3.02-6.62,6.67-9.6,10.32"/>
	<path class="st0" d="M167.76,170.6c2.01,0.75,3.04,2.63,4.26,4.13c2.84,3.52,5.45,7.23,7.95,11c2.53,3.82,3.25,8.18,3.15,12.69"/>
	<path class="st0" d="M824.47,153.57c0.42,0.83,0.7,1.68,0.73,2.64c0.3,8.57,0.88,17.12,1.34,25.67c0.46,8.54,0.54,17.1,0.66,25.66
		c0.15,10.31,0.47,20.63,0.63,30.95c0.03,2.16,0.08,4.33-0.23,6.48"/>
	<path class="st0" d="M664.67,430.64c1.33,1.79,1.01,3.99,1.42,6c1.31,6.5,2.94,12.9,5.03,19.2c0.41,1.22,0.5,2.55,0.74,3.83"/>
	<path class="st0" d="M743.61,211.38c0,54.53,0,109.07,0,163.6"/>
	<path class="st0" d="M212.15,211.62c0,54.45,0,108.91,0,163.36"/>
	<path class="st0" d="M572.29,1c-2.63,2.94-3.82,6.56-4.24,10.32c-0.35,3.14-0.26,6.32,1.3,9.38c2.27,4.43,6.07,6.11,10.62,6.38
		c2.31,0.14,3.67,0.47,4.93,2.88c2.4,4.56,6.69,6.83,11.84,7.83c4.48,0.87,8.67-0.3,12.97-0.8c1.69-0.2,3.34-0.59,5.04-0.75
		c3.5-0.34,5.51,1.12,7.04,4.32c3,6.28,6.82,12.05,13.13,15.62c4.61,2.61,9.44,4.43,14.87,4.61c6.6,0.22,12.94-0.26,18.49-4.35
		c0.3-0.22,0.86,0.19,1.19-0.26"/>
	<path class="st0" d="M433.13,211.38c-0.16,12.48-0.85,24.94-1.05,37.42c-0.14,9.11-0.4,18.24-0.93,27.35
		c-0.82,14.31-1.12,28.63-0.83,42.94c0.14,7.04,0.55,14.09,1.29,21.12c0.52,5.01,0.62,10.07,1,15.11c0.5,6.62,0.68,13.27,1,19.91"/>
	<path class="st0" d="M588.61,211.38c-0.31,8.31-0.03,16.64-0.3,24.95c-0.24,7.36-0.34,14.72-0.13,22.07
		c0.76,26.39,0.35,52.78,0.38,79.16c0.01,8.48-0.44,16.96-0.97,25.42c-0.26,4.08-0.66,8.15-0.9,12.24"/>
	<path class="st0" d="M658.43,447.19c-1.26,1.98-2.23,4.05-2.16,6.48"/>
	<path class="st0" d="M265.89,459.19c0.4,2.49-1.01,4.75-0.96,7.2"/>
	<path class="st0" d="M851.34,308.06c0.62,3.6,0.12,7.2-0.02,10.79c-0.27,6.88-0.46,13.75,0.21,20.64c0.3,3.09-0.03,6.24,0.29,9.35"
		/>
	<path class="st0" d="M11.32,460.39c-0.11,5.12,1.43,9.89,3.12,14.63"/>
	<path class="st0" d="M264.45,457.75c0.19-0.98,0.59-1.98-0.24-2.88c-2.63,1.17-3.55,3.96-5.51,5.76"/>
	<path class="st0" d="M268.77,462.55c-1.11,0.71-1.82,1.94-3.12,2.4"/>
	<path class="st0" d="M785.84,433.52c-0.88,1.04-1.76,2.08-2.64,3.12"/>
	<path class="st0" d="M555.98,387.94c0,8.8,0,17.59,0.01,26.39c0,0.8-0.15,1.63,0.23,2.4"/>
	<path class="st0" d="M260.13,168.92c-5.66,6.02-11.37,11.99-16.56,17.87c0,4.11,0,7.87,0,11.63"/>
	<path class="st0" d="M868.85,210.42c-0.56,0-1.12,0-1.68,0"/>
	<path class="st0" d="M637.07,170.6c2.1,0.94,3.21,2.9,4.53,4.58c2.89,3.69,5.63,7.49,8.43,11.25"/>
	<path class="st0" d="M228.94,168.92c-4.06,3.31-7.21,7.51-10.76,11.31c-1.9,2.03-3.89,3.95-5.79,5.97"/>
	<path class="st0" d="M258.21,438.08c-0.24,1.84-0.48,3.68-0.72,5.52"/>
	<path class="st0" d="M775.04,388.18c0,9.52,0,19.03,0,28.55"/>
	<path class="st0" d="M902.69,440.96c0.6,3.21,2.86,5.29,5.04,7.44"/>
	<path class="st0" d="M11.08,464.23c-1.54,1.13-1.38,3.07-2.12,4.58c-0.61,1.25-0.88,2.66-1.72,3.82"/>
	<path class="st0" d="M616.68,415.53c1.93,0.86,4.04,0.63,6,0.64c8.26,0.02,16.48,0.67,24.71,1.04c14.23,0.64,28.47,0.28,42.71,0.55
		c7.69,0.15,15.36-0.15,23.04-0.21c1.7-0.01,3.63-0.42,5.28,0.62"/>
	<path class="st0" d="M899.09,443.36c0.57,1.16,1.87,2.04,1.44,3.6"/>
	<path class="st0" d="M55.95,211.38c0,38.3,0,76.6-0.02,114.91c0,0.79,0.28,1.64-0.22,2.4"/>
	<path class="st0" d="M24.51,211.62c0,34.3,0,68.61,0,102.91"/>
	<path class="st0" d="M909.64,424.4c-1.55-0.65-3.25,0.17-4.8-0.48"/>
	<path class="st0" d="M509.67,168.92c-5.66,6.02-11.37,11.99-16.56,17.87c0,4.11,0,7.87,0,11.63"/>
	<path class="st0" d="M831.18,439.52c-0.84,1.98-2.3,3.65-2.88,5.76"/>
	<path class="st0" d="M336.91,388.18c0,12.23,0,24.47,0,36.7"/>
	<path class="st0" d="M243.58,387.94c0,13.11,0,26.23,0,39.34"/>
	<path class="st0" d="M203.75,478.14c-1.82,0.04-3.56-0.52-5.26-1.01c-1.14-0.33-2.24-0.41-3.38-0.42"/>
	<path class="st0" d="M605.16,168.92c-4.06,3.31-7.18,7.54-10.77,11.3c-1.65,1.72-3.16,3.56-5.06,5.02"/>
	<path class="st0" d="M800.47,28.83c0.93,0.84,0.84,2.07,1.24,3.1c2.34,6.05,6.96,9.87,12.69,12.47c3.5,1.59,7.26,2.44,11.04,2.82
		c4.46,0.45,8.69-0.47,11.89-4.74c3.99,7.76,11.02,10.4,18.58,11.97c5.85,1.22,11.55,0.58,16.79-2.6"/>
	<path class="st0" d="M305.48,387.94c0,12.47,0,24.95,0,37.42"/>
	<path class="st0" d="M149.28,211.62c0,54.45,0,108.91,0,163.36"/>
	<path class="st0" d="M478.48,168.92c-4.06,3.31-7.21,7.51-10.76,11.31c-1.82,1.94-3.73,3.79-5.55,5.73"/>
	<path class="st0" d="M697.78,168.92c-5.52,5.92-11.04,11.83-16.56,17.75"/>
	<path class="st0" d="M493.11,211.38c0,54.53,0,109.07,0,163.6"/>
	<path class="st0" d="M399.78,388.18c0,12.23,0,24.47,0,36.7"/>
	<path class="st0" d="M167.04,168.92c-5.36,5.76-10.72,11.51-16.08,17.27"/>
	<path class="st0" d="M728.01,168.92c-4.95,5.05-9.53,10.45-14.6,15.39c-0.46,0.45-0.62,1.21-0.61,2.13
		c0.03,4.01,0.87,7.98,0.58,11.99"/>
	<path class="st0" d="M270.69,389.14c0.55,1.74,0.21,3.52,0.22,5.28c0.05,7.28-0.09,14.56,0.07,21.83
		c0.07,3.36,0.25,6.75,0.91,10.08"/>
	<path class="st0" d="M796.63,99.35c-5.64,4.59-12.58,3.23-17.04-3.36c-2.56-3.78-2.5-3.58-7.21-2.21
		c-5.46,1.58-10.93,0.69-16.03-1.45c-5.85-2.45-11.35-5.55-13.97-11.92c-0.05-0.13-0.06-0.57-0.45-0.49c0.08-0.24,0-0.32-0.39-0.19
		c-1.11,0.82-1.19,2.34-1.73,3.56c-1.9,4.36-5.42,6.51-9.88,6.63c-8.95,0.22-17.54-1.37-24.42-7.66c-2.65-2.42-5.52-2.92-8.68-2.3
		c-7.06,1.39-12.99-1.02-18.48-5.09c-4.75-3.52-6.75-8.68-8.14-14.15c-0.17-0.65-0.05-1.36-0.98-1.43"/>
	<path class="st0" d="M855.66,238.97c1.03,1.26,0.51,2.74,0.44,4.08c-0.86,16.07-1.02,32.15-0.57,48.22
		c0.36,12.95,1.48,25.89,1.34,38.87c-0.01,0.48,0.15,0.96,0.23,1.44"/>
	<path class="st0" d="M584.77,185.95c2.14-0.41,2.62,0.82,2.92,2.63c0.54,3.27,0.31,6.59,0.92,9.84"/>
	<path class="st0" d="M698.5,170.6c2.1,0.94,3.21,2.9,4.53,4.58c2.65,3.37,5.13,6.87,7.72,10.28c0.61,0.81-0.38,0.79-0.49,1.21"/>
	<path class="st0" d="M571.81,170.6c1.48,0.49,2.19,1.8,3.12,2.88c3.48,4.02,6.3,8.55,9.59,12.72c0.08,0.1,0.01,0.31,0.01,0.47"/>
	<path class="st0" d="M448.24,168.92c-3.44,3.68-6.84,7.4-10.34,11.02c-1.5,1.55-3.04,3.09-4.25,4.85c-0.78,1.13-1.6,1.71-2.93,1.65
		"/>
	<path class="st0" d="M666.59,168.92c-4.06,3.31-7.21,7.51-10.76,11.31c-1.82,1.94-3.73,3.79-5.55,5.73"/>
	<path class="st0" d="M387.54,170.6c2.1,0.94,3.21,2.9,4.53,4.58c2.65,3.37,5.13,6.87,7.72,10.29c0.84,1.11,0.25,2.3,0.16,3.36
		c-0.27,3.21-0.08,6.4-0.17,9.6"/>
	<path class="st0" d="M571.09,168.92c-3.76,4-7.5,8.01-11.29,11.99c-1.65,1.74-3.21,3.54-4.55,5.53"/>
	<path class="st0" d="M321.56,168.92c-3.12,3.67-6.73,6.87-9.9,10.5c-1.85,2.12-3.67,4.31-5.7,6.29c-0.46,0.45-0.63,0.83-0.58,1.68
		c0.23,3.66,0.1,7.35,0.1,11.03"/>
	<path class="st0" d="M214.54,412.89c-0.74,3.07,0.64,5.92,0.99,8.87c0.22,1.88,0.43,3.71-0.27,5.52"/>
	<path class="st0" d="M40.35,168.92c-5.36,5.76-10.72,11.51-16.08,17.27"/>
	<path class="st0" d="M257.01,444.07c0.7,0.22,0.96,0.72,0.96,1.44c0.01,4.24-0.1,8.48,0.23,12.71"/>
	<path class="st0" d="M290.36,168.92c-4.14,3.4-7.36,7.68-11.01,11.54c-1.45,1.54-2.82,3.12-4.59,4.29"/>
	<path class="st0" d="M921.64,77.04c-0.18,2.13-2.13,2.95-3.42,4.01c-9.59,7.89-19.56,15.3-29.95,22.11
		c-3.55,2.33-7.34,4.28-11.51,5.29c-6.15,1.49-11.2-2.5-10.72-8.37c0.24-2.94-1.24-5.48-1.11-8.41c0.32-7.04,1-14.06,1.27-21.11"/>
	<path class="st0" d="M807.43,375.47c0.01,3.96-0.65,7.86-1,11.77c-0.28,3.1-0.65,6.22-0.89,9.34c-0.38,5-1.15,9.94-2.01,14.86
		c-0.98,5.62-1.72,11.3-3.29,16.8c-1.01,3.55-2.04,7.04-5.51,9.14c-1.09,0.66-2.23,1.31-3.39,1.59c-4.69,1.16-9.06,3.22-13.64,4.69
		c-3.09,0.99-6.19,1.67-9.38,2.08"/>
	<path class="st0" d="M178.55,463.51c-3.92,3.2-7.85,6.38-11.74,9.61c-0.65,0.54-1.13,1.26-1.69,1.9"/>
	<path class="st0" d="M789.43,168.92c-5.28,5.68-10.56,11.35-15.84,17.03"/>
	<path class="st0" d="M260.85,170.6c2.1,0.94,3.21,2.9,4.53,4.58c2.26,2.88,4.34,5.9,6.51,8.85c0.74,1,0.76,0.98,1.68,0.24"/>
	<path class="st0" d="M608.52,398.98c-1.37,2.3-0.96,4.99-1.63,7.45c-0.56,2.03-0.52,4.21-1.25,6.22"/>
	<path class="st0" d="M824.47,426.32c0.65,1.13,0.62,2.41,0.45,3.59c-0.56,3.88-0.05,7.7,0.51,11.52"/>
	<path class="st0" d="M908.44,123.1c2.84,4.11,6.88,5.79,11.76,5.76c0.69,0,1.51,0.19,1.44-0.96"/>
	<path class="st0" d="M117.85,211.38c0,54.53,0,109.07,0,163.6"/>
	<path class="st0" d="M539.9,168.92c-4.22,3.47-7.47,7.88-11.26,11.77c-1.79,1.84-3.14,4.17-6.21,4.6c-1.91-2.54-3.88-5.13-5.8-7.74
		c-1.86-2.52-3.44-5.28-6.24-6.95"/>
	<path class="st0" d="M680.74,211.38c0,54.53,0,109.07,0,163.6"/>
	<path class="st0" d="M775.04,211.62c0,54.45,0,108.91,0,163.36"/>
	<path class="st0" d="M899.81,211.62c0,54.45,0,108.91,0,163.36"/>
	<path class="st0" d="M618.84,211.38c0,54.53,0,109.07,0,163.6"/>
	<path class="st0" d="M72.98,357.95c3.16-3.67,7.35-4.89,12-5.05c2.83-0.09,5.53,0.2,8.17,1.41c6.28,2.88,9.7,9.31,8.76,16.81
		c-0.26,2.08,0.6,2.72,2.03,2.82c1.98,0.15,3.76,0.65,5.52,1.48c1.63,0.76,3.35,0.01,5.03,0.01c10.48,0.02,20.95,0.01,31.43,0.01
		c21.19,0,42.39,0.06,63.58-0.02c11.36-0.05,22.72-0.17,34.07-0.1c19.76,0.13,39.51,0,59.27,0.11c10.4,0.06,20.79,0.01,31.19,0.01
		c20.95,0,41.91,0,62.86,0c20.79,0,41.59,0.06,62.38-0.03c11.28-0.05,22.56-0.17,33.83-0.1c20.08,0.13,40.15,0,60.23,0.11
		c11.04,0.06,22.07,0.01,33.11,0.01"/>
	<path class="st0" d="M807.91,183.56c0.29,0.26,0.5,0.5,0.49,0.96c-0.07,3.29,0.34,6.58,0.36,9.84c0.02,4.66,0.43,9.28,0.64,13.91
		c1.6,34.38,0.81,68.77,0.82,103.15c0,12.63-0.52,25.28-1.25,37.91c-0.28,4.78-0.66,9.58-0.58,14.39c0.01,0.86,0.26,1.82-0.71,2.4"
		/>
	<path class="st0" d="M94.1,475.98c-3.05,2.07-6.41,1.83-9.84,1.46c-4.72-0.5-9.28-1.78-13.92-2.62c-2.07-0.37-4.2,0.22-6.22,0.72
		c-1.99,0.49-3.73,0-5.27-1.04c-3.06-2.07-3.08-2.14-3.84-7.41c-0.81-5.63-2.61-11.02-3.83-16.56c-0.24-1.09-1.72-1.35-1.48-2.63"/>
	<path class="st0" d="M1,322.21c2.43-3.18,5.98-4.52,9.61-5.47c6.98-1.83,14.03-3.03,21.1-0.29c4.54,1.76,8.07,5.82,6.72,11.75
		c-0.32,1.42,0.04,1.8,1.44,1.43c8.1-2.1,15.98-1.54,23.51,2.18c5.92,2.93,9.51,7.51,9.89,14.37c0.18,3.29-0.23,6.44-1,9.6"/>
	<path class="st0" d="M805.99,387.46c-9.52,0-19.04-0.08-28.55,0.02c-11.28,0.12-22.56,0.17-33.83,0.1
		c-20.08-0.13-40.15,0.01-60.23-0.11c-10.4-0.06-20.8-0.09-31.19,0.01c-11.12,0.1-22.24,0.18-33.35,0.1
		c-20.08-0.14-40.15-0.03-60.23-0.11c-20.95-0.08-41.91-0.02-62.86-0.02c-10.24,0-20.47,0-30.71,0c-20.79,0-41.59,0-62.38,0
		c-20.95,0-41.91-0.07-62.86,0.03c-11.44,0.05-22.88,0.16-34.31,0.09c-19.76-0.12-39.51,0.01-59.27-0.11
		c-10.4-0.06-20.79-0.01-31.19-0.01c-20.95,0-41.91,0-62.86,0c-10.64,0-21.27-0.01-31.91,0.01c-0.9,0-1.87-0.27-2.64,0.47"/>
</g>
</svg>
