<?xml version="1.0" encoding="utf-8"?>
<!-- Generator: Adobe Illustrator 27.1.0, SVG Export Plug-In . SVG Version: 6.00 Build 0)  -->
<svg version="1.1" xmlns="http://www.w3.org/2000/svg" xmlns:xlink="http://www.w3.org/1999/xlink" x="0px" y="0px"
	 viewBox="0 0 1843.2 518.4" style="enable-background:new 0 0 1843.2 518.4;" xml:space="preserve">
<style type="text/css">
	.st0{fill:#0A0A0A;}
	.st1{fill:#A0A0A0;}
	.st2{fill:#1E1E1E;}
	.st3{fill:#080808;}
	.st4{fill:#9E9E9E;}
	.st5{fill:#090909;}
	.st6{fill:#0C0C0C;}
	.st7{fill:#0B0B0B;}
</style>
<g id="Laag_3">
</g>
<g id="Laag_2">
	<g>
		<path d="M1753.9,500.4c-0.8,0.5-1.7,0.7-2.6,0.8h0c0,0,0,0,0,0h0c0,0,0,0,0,0c-0.5,0-1,0-1.5,0c-1.7,0-3.3-0.2-5-0.4
			c0,0,0,0-0.1,0c0,0,0,0,0,0c0,0,0,0,0,0c-1.3-0.2-2.6-0.4-3.9-0.8c-1.6-0.4-2.6-1.3-2.9-3.1c-0.2-1.9-0.8-2.2-2.8-2
			c-3.4,0.4-6.8,0.8-9.6,3.1c-0.9,0.7-2.1,0.7-3,0c-0.8-0.7-0.8-1.7,0.1-2.9c0.5-0.7,1.1-1.4,1.4-2.2c0.2-0.7,0.3-1.5-0.5-1.9
			c-0.7-0.3-1.2,0.1-1.7,0.6c-1.4,1.5-2.2,3.3-3,5.2c-0.6,1.6-1.6,2.4-3.3,2.8c-2.2,0.5-3.3-0.3-2.9-2.6c0.3-1.7,0.7-3.4,1-5.2
			c0.8-4.6,1.7-9.3,1.7-14c0-2.2,0.2-4.3,0.7-6.4c1-4.3,0.7-8.6,0.9-12.9c0.1-3.3-0.9-6.5-2.5-9.4c-1.3-2.4-2.3-4.9-4.4-6.8
			c-1.1-1-2.2-1.8-3.6-2.2c-2-0.7-3.9-0.5-5.7,0.8c-1.3,1-2.5,2-3.8,2.9c-1,0.7-2,1.5-3.3,0.8c-1.3-0.7-1.7-1.8-1.7-3.2
			c0-1.8-0.1-3.5,0-5.3c0.3-4.5-1.3-8.5-3.4-12.3c-1.6-2.9-3.5-5.6-5.6-8.1c-4.6-5.4-10.8-8.2-17.8-8.9c-3.6-0.3-7.3-0.4-10.9,0.8
			c-4.5,1.5-7.9,4.2-10.4,8.1c-1,1.5-1.9,3.2-2.8,4.8c-1.2,2.1-2.4,2.2-4.2,0.7c-1.7-1.5-3-3.3-4.5-5c-2.8-3.2-6.2-5.2-10.6-5.5
			c-8.8-0.6-17.2,1.1-24.8,5.7c-4.6,2.8-7,7.3-8.8,12.2c-0.8,2.2-0.6,4.6-0.2,6.9c0.2,1.4-0.3,2.4-1.2,3.4c-1.5,1.5-3.4,2.2-5.3,2.7
			c-4.6,1.1-9,2.8-13.6,4c-2.1,0.5-3.9,1.8-5.7,3c-2.9,1.8-5.7,3.9-8.5,5.9c-1.6,1.1-2.9,2.5-4,4.1c-1.1,1.5-1.6,3.2-1.5,5.2
			c0.1,2.7-1.2,3.9-4,3.6c-1.3-0.2-2.6-0.2-3.8-0.7c-3-1.1-6.1-1-9.2-1.4c-1.5-0.2-3,0-4.5,0.5c-4.9,2-9.5,4.2-12.2,9.2
			c-0.9,1.7-0.8,3.4-0.8,5.1c0,0.8,0.3,1.6-0.4,2.2c0,0-0.1,0.1-0.1,0.1c-0.2,0.1-0.5,0.2-0.7,0.2c-0.2,0-0.5,0-0.7-0.1
			c0,0,0,0-0.1,0c-0.7-0.3-0.9-0.9-0.8-1.6c0.1-0.1,0.2-0.3,0.2-0.4c0.1-0.3,0.2-0.6,0.1-0.9c0-0.3-0.1-0.6-0.2-1
			c0,0,0.1-0.2,0.1-0.3c0.4-1,1.3-4,1.3-4c1-2.5,3-4.8,5.2-6.4c0,0,0,0,0,0c4.6-3.5,9.7-5.7,15.7-5c0.1,0.1,0.2,0.1,0.3,0
			c0.2,0.1,0.4,0.2,0.7,0.2c0.2,0,0.4-0.1,0.6-0.1h0c3.4,0.4,6.7,1.7,10.4,2c-0.4-4.6,1.8-7.9,4.8-10.8c1.3-1.3,2.9-2.3,4.3-3.4
			c5-3.7,10-7,16.1-8.6c4-1.1,8-2.3,11.9-3.5c2.1-0.6,3.3-1.5,2.4-3.9c-0.2-0.6-0.1-1.4-0.2-2.1l0.1-0.1l-0.1-0.1
			c0.1-0.3,0.2-0.6,0.2-0.9c0,0,0,0,0-0.1c1.7-10.5,7.8-17.3,17.8-20.7c6.7-2.3,13.7-3,20.8-2.5c0.2,0.1,0.4,0.2,0.6,0.3
			c4.1,0.8,7.6,2.7,10.1,6.2c1.2,1.7,2.8,3.1,4.1,4.6c0.2-0.2,0.4-0.2,0.5-0.3c0.4-0.6,0.7-1.2,1.1-1.9c3.2-6.3,8-10.6,15-12.4
			c1.5-0.4,3.1-0.5,4.7-0.5c0.8,0.1,1.6,0.1,2.3,0.1c1.1,0,2.2,0.1,3.2,0.1c5.9,0.2,11.1,2.4,15.7,5.9c4.9,3.7,8.2,8.9,11,14.3
			c1.8,3.6,2.9,7.4,2.6,11.5c-0.2,1.9,0,3.8,0,5.7c0.2,0.1,0.3,0.1,0.5,0.2c1.3-1,2.7-2,3.9-3c2.2-1.9,4.6-2.4,7.4-1.7
			c2.4,0.6,4.5,1.6,6.1,3.5c2.9,3.4,4.9,7.4,6.3,11.7c1.3,3.7,0.9,7.6,1.2,11.4l-0.1,0.1l0.1,0.1c-0.2,0.6-0.2,1.2-0.2,1.9v0
			c0,1-0.1,2-0.3,2.9c-0.7,3-0.9,6-1.2,9.1c0,0.2,0,0.4,0,0.7c-0.2,2.8-0.4,5.5-0.7,8.2c0,0,0,0,0.1,0c-0.2,0.5-0.3,1-0.2,1.5
			c-0.3,2.1-0.7,4.3-1.1,6.4c1.6-2.1,3.1-4.1,4.6-6.1c0.9-1.2,2-2.1,3.6-1.7c1.6,0.4,2.2,1.7,2.6,3.1c0.3,1.2,0.3,2.5,0.3,3.9
			c2.6-0.6,5-1.3,7.4-1.6c1-0.1,2.1-0.1,3-0.6c0.4,0,0.8,0,1.2,0c2.7,1,2.1,3.4,1.9,5.5c2.1,0.8,3.9,1.5,6.1,1.3
			c1.6-0.2,3.2,0.2,4.7,0.7C1752.5,499.2,1754.1,498.8,1753.9,500.4z"/>
		<path class="st0" d="M589.4,452.5c0,1.8-1.2,1.3-2.3,1.3c-5,0.2-10-0.3-15,1.1c-1.5,0.4-2.8,1.3-4.3,1.9c-1,0.4-2.1,0.5-2.7-0.6
			c-0.6-1.1-0.2-1.9,0.8-2.7c2.4-1.8,3.9-4,4.2-7.2c0.4-5.2-1.9-9.2-6.7-11c-7.4-2.6-14.9-3.5-22.5-1c-3.8,1.2-7,3.3-10,5.9
			c-2.7,2.3-5.2,4.9-7.1,8c-0.2,0.4-0.6,0.7-1,1c-0.6,0.6-1.4,0.8-2.2,0.5c-0.8-0.4-1.2-1-1.1-1.9c0.2-2.9-0.2-5.9,0.3-8.8
			c0.5-3.8-0.9-6.8-3.2-9.6c-0.9-1.1-2.1-1.9-2.8-3.2c-0.6-1-1.7-1-2.6-1c-7.5-0.5-14.1,1.5-19.7,6.9c-3,2.9-6,5.7-8.8,8.8
			c-3,3.4-5.3,7.2-6.9,11.4c-0.4,1-0.8,2-2,2.1c-1.4,0.2-1.8-0.9-2.5-1.9c-3-4.5-6.3-8.8-10.3-12.5c-2.1-1.9-4.4-1.5-6.8-0.6
			c-4.8,1.8-7.2,7.9-5.6,12.2c0.5,1.5,0.6,3.1,0.9,4.6c0.7,3.9,1.6,7.7,4.6,10.6c0.2,0.2,0.3,0.4,0.4,0.6c0.7,0.9,1.6,1.9,0.3,2.9
			c-1,0.8-2.3,0.7-3.2-0.3c-1-1-2.2-1.5-3.5-2c-0.9-0.4-1.8-0.5-2.7-0.3c-2.8-0.2-5.5-0.7-8.3-0.6c-2,0.1-3.5,0.9-4.3,2.8
			c-1.1,2.6-2,5.2-2,8c0,0.8,0,1.6-0.1,2.4c-0.5,3.1-1.6,3.7-4.6,2.5c-0.4-0.1-0.8-0.3-1.1-0.4c-6.8-2.1-10,2.4-10.3,8.2
			c-0.1,1.8-0.6,2.7-2.2,3.4c-3.9,1.8-8.3,2.3-12.2,4.2c-2.1,1.1-4.3,2-6.4,3.2c-2.2,1.3-3.2,1.1-4.5-1.1c-0.7-1.2-1.3-2.6-2-3.8
			c-0.6-1.2-1-2.7-2-4.1c-0.4,1.9-0.1,3.3,0.1,4.8c0.2,2.4-1,4.3-3,4.8c-0.9,0.3-1.7,0.3-2.3-0.7c-0.2-0.3-0.6-0.9-0.2-1
			c2.8-1.1,2.7-3.5,2.6-5.8c0-2.1,0.1-4.1,0.4-6.2c0.1-0.9,0.4-1.8,1.4-2c1.1-0.2,1.5,0.7,1.9,1.5c1.4,3.1,2.8,6.1,4.1,9.2
			c0.3,0.7,0.6,1.5,1.7,2.2c6-3.2,12.7-5.5,19.6-7.5c-0.4-3.8,1.4-6.5,3.1-9.3c1.2-2,3-3,5.4-2.9c0.9,0,1.8,0,2.6,0
			c1.6,0.4,3.3,0.3,5,1.4c0.1-1.8,0.1-3.2,0.3-4.5c0.5-3.8,1.6-7.5,4.1-10.5c0.9-1.1,2-1.4,3.4-1.4c4.7,0,9.3,0.8,14.2,1.5
			c-0.3-0.9-0.4-1.8-0.8-2.5c-2.5-5-2.9-10.4-3.1-15.8c-0.2-6.6,6.7-12.2,13.2-11c2.1,0.4,3.7,1.9,5.1,3.4c3.3,3.4,5.9,7.3,9.2,11
			c1.3-2.6,2.5-5.1,4.1-7.3c5-7,11-13.1,18.3-17.7c4.6-3,9.9-3.6,15.2-2.9c4.7,0.6,10,6.7,10.8,12c0.5,3.5,0.2,7,0.4,10.8
			c6.4-7.9,13.8-13.8,24-15.2c5.5-0.1,10.9,0.1,16.3,1.8c6.3,2,9.6,6,10.1,12.6c0.2,2.8-0.7,5.1-2.3,7.7c3-0.4,5.5-1.5,8.2-1
			c0.7,0.6,1.5,0.4,2.3,0.4c1.8,0,3.5,0.1,5.2,0C587.1,452,588.3,452.2,589.4,452.5C589.4,452.5,589.4,452.5,589.4,452.5z"/>
		<path class="st0" d="M666.7,500.4c-0.8,0.3-1.3-0.1-1.9-0.6c-1.9-2-2.3-2-4,0.3c-0.3,0.4-0.6,0.8-0.9,1.3c-0.5,0.8-1.1,1.2-2,1
			c-1-0.2-1.4-0.9-1.5-1.9c-0.2-2.4-0.1-4.8-0.1-7.2c0-1,0.1-2-0.3-3.3c-1.9,1.8-2.3,4.1-2.9,6.2c-0.5,1.7-0.9,3.4-1.7,5
			c-1,2-2.5,2.2-3.8,0.4c-0.9-1.2-1.9-1.6-3.3-1.5c-1.3,0.1-2.6,0.1-3.9,0c-2.1-0.2-3-1.1-2.5-3c0.5-1.9,0.2-3.7,0-5.6
			c-0.3-2.4-1.3-3.3-3.7-3.6c-1.7-0.2-3.3-0.1-5,0c-3.3,0.1-4.4-0.5-5.2-3.7c-0.9-3.4-2.4-6.5-1.9-10.3c0.2-2-1-4.1-3.4-4.6
			c-3.3-0.8-6.7-1.8-10.2-0.7c-0.3,0-0.5-0.1-0.8-0.2c-0.7-0.2-1.4-0.1-2.1,0.1c-2.8,0.6-5.7,0.3-8.5,1c-0.7,0.2-1.4,0-2.1-0.2
			c-1.5-0.6-2.2-1.9-1.4-3.2c1.1-1.8,1.2-3.7,1.6-5.6c0.1-0.3,0.3-0.5,0.5-0.7c0.3-0.3,0.8-0.5,1.3-0.6c0.1,0,0.1,0,0.2,0
			c0,0,0,0,0,0c0,0,0,0,0,0.1c1,2.7,0.3,5.2-1.2,7.6c1,0.4,1.8,0.2,2.5-0.2c0.3,0,0.6,0,0.9,0c1.1,0.2,2.2-0.2,3.3-0.2
			c5.5-0.4,11-1.2,16.4,0.5c3,0.9,4.9,2.6,4.9,5.9c0,3.4,0.9,6.6,2,9.8c0.6,1.8,1.3,3,3.5,2.7c1.3-0.1,2.6,0,3.8,0
			c4.3,0,6.7,2.1,7.2,6.4c0.3,2,0.1,4-0.4,6c3.2,0.6,6.7-1.3,9.4,1.4c0.7-0.7,0.8-1.5,1-2.3c0.8-4.4,2.7-8.3,5-12.1
			c0.4-0.7,0.8-1.5,1.8-1.4c1.1,0.2,1.2,1.2,1.3,2c0.5,3.4,0.2,6.9,0.3,10.3c0,0.7-0.2,1.4,0.3,2.1c1.1-0.4,1.5-1.4,2.2-2.1
			c1.5-1.6,2.8-1.5,4,0.4c0.6,0.9,1.1,1.8,1.7,2.6C667.4,499.3,667.5,500,666.7,500.4z"/>
		<path d="M1510.8,479.6c0.1-0.2,0.2-0.4,0.3-0.6c1,0.5,1,1,0,1.5c-0.1,0-0.2-0.1-0.3-0.1C1510.8,480.1,1510.8,479.8,1510.8,479.6z"
			/>
		<path class="st1" d="M608,467.4c0.1-0.1,0.2,0,0.3,0c3.4,0.5,6.9,0.9,10.3,1.8c2.3,0.6,3.7,3.3,3.4,5.5c-0.2,1.5-0.1,2.9,0.4,4.3
			c0.8,2.3,1.3,4.6,2.4,6.8c0.8,1.5,1.8,2,3.3,2c2,0.1,4-0.4,6.1,0c2.4,0.4,3.5,1.2,3.7,3.6c0.2,1.8,0.6,3.6,0,5.4
			c-0.6,2.1,0.3,3,2.5,3.2c1,0.1,1.9,0.1,2.9,0c1.8-0.1,3.4,0,4.6,1.9c1,1.6,2.4,1.2,3.3-0.5c0.8-1.5,1.4-3.1,1.8-4.8
			c0.1-0.5,0.1-1.1,0.4-1.6c0.3-0.6,0.7-1.1,1.5-1c0.6,0.1,0.9,0.6,1.1,1.2c0.2,0.9,0.2,1.7,0.2,2.6c0,1,0,2.1,0.2,3.1
			c0.2,0.8,0.6,1.5,1.5,1.7c0.8,0.2,1.3-0.4,1.7-1c0.5-0.6,0.7-1.3,1.3-1.9c1.5-1.6,2.2-1.7,3.6-0.2c1.3,1.4,1.4,1.4,3-0.2
			c0.6,0.9,1.2,1.8,1.8,2.6c0.9,0.5,1.6-0.1,2.3,0c0.9,0,1.6,0.3,1.9,1.2c0.3,0.7,0.2,1.4-0.4,2c-0.7,0.7-1.2,1.4-1.4,2.4
			c-0.3,1.3-1.5,1.6-2.7,1.6c-5.5,0-11,0.3-16.5-0.6c-2.2-0.4-4.4-0.4-6.7-0.4c-4.9,0-9.7,0.1-14.6,0.1c-0.6,0-1.1,0-1.7,0.1
			c-7.2,1.4-14.5,0.8-21.7,0.9c-3.1,0-6.2,0-9.3-0.1c-0.3-1,0.2-1.5,1.1-1.8c2-0.8,3.9-1.8,5.4-3.4c1.3-1.2,2.4-0.9,3.1,0.8
			c0.4,1,0.9,2.1,2,2.5c1.3,0.5,2.6,0.1,3.6-1c0.8-0.9,1.6-1.7,3.1-1.1c0.9,0.4,1.5-0.2,1.9-1c0.5-0.9-0.1-1.5-0.7-2.1
			c-1.3-1.1-2.7-1.4-4.3-0.9c-1.6,0.5-2.6-0.1-3.5-1.4c-1.5-2.2-3.4-2.3-5.4-0.5c-0.8,0.8-1.5,1.6-2.4,2.4c-2.7,2.2-5.7,3.3-9.2,2.6
			c-0.9-0.2-1.9-0.2-2.9-0.2c-4.7,0-9.4-0.3-14,0.4c-1.7,0.2-3.3-0.2-5-0.3c-4.5-0.2-8.9-0.2-13.4,0c-2.1,0.1-2.2,0.3-2.5,2.5
			c-0.1,0.6-0.3,1-0.5,1.5c-7.2,0-14.4,0.1-21.6,0.1c-5.4,0-10.7-0.2-16.1,0c-3.9,0.1-7.8-0.6-11.7-0.6c-2.6,0-5.1,0.1-7.7,0.4
			c-3,0.3-6.1,0.2-9.1-0.4c-2.7-0.5-5.2-0.2-7.8,0.3c-0.5,0.1-0.9,0.3-1.4,0.3c-11.2,0.3-22.3,2-33.5,0.2c-0.9-0.1-1.8-0.1-2.6,0.3
			c-2.1-0.8-4.3-0.2-6.4-0.2c-9.2-0.3-18.4-0.2-27.6-0.2c-1.4,0-2.9-0.1-4.2,0.4c-5.8,2.5-11.9,1.4-17.9,0.9
			c-1.4-0.1-2.8-0.3-4.3-0.4c-2.8-0.1-3.2-1-1.9-3.5c-1.4-1.1-2.7-2.3-0.9-4.2c3.8-0.7,4.2-1.3,3.9-5c-0.2-2.6-0.3-5.3,0.6-8.4
			c2.7,4.7,3.9,9.5,6.8,13.4c5.1-3,10.2-5.3,15.7-6.7c1.9-0.5,3.6-1.3,5.4-2c0.8-0.3,0.9-0.9,0.8-1.7c-0.5-3.9,1.4-7.2,4.2-9.3
			c2.5-1.9,6-1,9,0.1c0.7,0.2,1.2,0.9,2.1,0.8c0.9-1,0.7-2.3,0.7-3.5c-0.1-3.6,1-6.9,2.4-10.2c0.9-2.1,2.3-3.2,4.8-3.1
			c3,0.1,5.9,0.4,8.8,0.8c2.1,1.2,4.7,1.8,6.5,3.7c0.8,0.8,1.9,0.6,2.8,0.5c1.4-0.2,1.6-1.5,0.4-2.7c-2.7-2.6-4.4-5.7-5.1-9.3
			c-0.7-3.8-2.3-7.6-1.8-11.5c0.7-4.9,3.9-7.9,9.1-8.6c1.4-0.2,2.6,0.6,3.6,1.5c4,3.8,7.5,8.1,10.4,12.7c0.5,0.8,0.9,1.8,2,1.8
			c1.2-0.1,1.7-1,2.1-2c3.1-7.9,8.5-14.1,14.9-19.5c1.3-1.1,2.5-2.2,3.8-3.3c5.1-4.1,11.1-4.9,17.4-4.5c0.9,0.1,1.7,0.4,2.3,1.3
			c1,1.7,2.9,2.8,3.8,4.6c1.4,2.5,2.6,5,1.9,8.1c-0.6,3,0,6-0.4,9c-0.1,0.8,0.1,1.5,0.9,1.7c0.9,0.3,1.7,0.1,2.4-0.6
			c1.7-1.6,2.7-3.8,4.3-5.5c5.3-5.7,11.4-10.2,19.3-10.9c5.8-0.5,11.7,0,17.3,2.3c7.2,2.9,9.6,12.6,2.6,18.1
			c-1.1,0.9-1.9,1.7-1.1,3.1c0.8,1.4,2.1,0.8,3,0.3c6.9-3.8,14.2-3.2,21.6-2.4c0.9,0.1,1.5-0.3,2.2-0.4c0.8,0.1,1.4,0.5,1.9,1.1
			c0.1,1.6,0.8,3,1,4.6c0.3,1.9,0.3,3.9-0.9,5.7c-1.2,1.8-0.6,3.8,1.2,3.7C599.4,469,603.9,469.5,608,467.4z"/>
		<path class="st1" d="M554.8,508.2c-1.1-3.7-0.1-5.2,3.7-5.3c3.9-0.1,7.8,0,11.8,0c0.9,0,1.7,0.3,2.6,0.6c1.2,0.4,2.4,0.5,3.5,0.2
			c5.8-1.4,11.7-0.9,17.6-0.3c3.5,0.3,6.4-1,8.8-3.5c1.3-1.3,2.4-2.8,4.6-2.7c1.4,0.1,2.6,0.3,3.3,1.6c0.8,1.4,1.9,1.7,3.4,1.4
			c1.6-0.3,3.2,0.1,4.5,1.2c0.8,0.7,1.5,1.5,1.1,2.7c-0.5,1.2-1.3,2.3-2.8,2.1c-0.9-0.1-1.7,0.2-2.4,0.8c-3,2.4-5.7,1.8-7.2-1.7
			c-0.1-0.3-0.3-0.5-0.6-1.2c-2.3,2.5-5.2,3.7-8,5.1c-0.3,0-0.7,0-1,0c-2.6-1-5.3-0.6-7.9-0.6c-4.1,0-8.2-0.2-12.2,0.2
			c-0.8,0.1-1.6,0.1-2.3,0.4c-2.4,0-4.8,0-7.3,0c-1.2-0.7-2.6-0.1-3.9-0.4C560.8,508.3,557.8,508.2,554.8,508.2z"/>
		<path class="st1" d="M667.6,499.4c0,0.1,0,0.2-0.1,0.2c-0.9,2.6-1.7,2.8-3.5,0.8c-0.3-0.3-0.5-0.8-1.1-0.9c-1.1,0.3-1.5,1.3-2,2.2
			c-0.7,1.2-1.6,2.3-3.2,1.9c-1.6-0.4-2.4-1.7-2.5-3.2c-0.1-1.7,0-3.5-0.2-5.3c-0.8,0.6-0.9,1.5-1,2.3c-0.4,1.7-1,3.2-1.9,4.6
			c-1.1,1.8-3.2,2.3-4.6,0.7c-1.4-1.7-2.9-2.1-4.8-1.6c-0.7,0.2-1.6-0.1-2.4-0.2c-2.8-0.3-3.7-1.3-3.3-4.1c0.3-1.9,0-3.7-0.2-5.5
			c-0.2-1.6-0.8-2.2-2.5-2.4c-1.4-0.2-2.8-0.3-4.3-0.1c-3.9,0.5-5.4-0.5-6.8-4.1c-0.8-2.2-1.4-4.4-2-6.7c-0.3-0.9-0.2-1.9-0.1-2.9
			c0.3-2.9-1-4.8-3.8-5.4c-1.8-0.4-3.5-1-5.4-1.1c-1.4,0-2.2-1.2-3.5-1.5c3.5-0.4,7-0.3,10.4,0.8c2.5,0.8,4.1,2.3,4,5
			c-0.2,3.7,1.2,7,2.2,10.5c0.3,1,0.9,1.8,1.5,2.8c2.3,0.4,4.6,0.1,6.9,0.2c3.9,0.1,5.7,1.8,6,5.6c0.1,1.6,0,3.2-0.4,4.8
			c-0.4,1.6,0.1,2.2,1.8,2.2c1.5,0,3-0.1,4.5-0.3c1.7-0.1,3,0.3,3.4,2.2c0.1,0.3,0.3,0.5,0.5,0.7c0.8,0.1,1.1-0.4,1.3-0.9
			c1.1-2,1.6-4.2,2.1-6.4c0.7-3.4,2.5-6.2,4.3-9c0.8,0.4,0.6,1.1,0.6,1.7c0.1,4,0.1,8,0.1,12c0,0.8-0.4,1.8,0.8,2.5
			c1.5-2.1,2.8-4.3,5-5.9c1.5,1.1,1.8,3.1,3.3,4c0.7-0.4,0.4-0.9,0.5-1.3C667.4,498.8,667.5,499.1,667.6,499.4z"/>
		<path class="st2" d="M405.1,508.6c0.4-1.5,1.8-1.1,2.8-1.1c8.4,0,16.8,0,25.1,0c2.7,0,5.4-0.1,8.1,0c0.9,0,2.1-0.3,2.2,1.2
			c-0.8,0.5-1.7,0.3-2.6,0.3c-11,0-21.9,0-32.9,0C407,509,406,509,405.1,508.6z"/>
		<path class="st1" d="M574.9,509.1c1.7-1.2,3.7-1.3,5.7-1.4c4.2-0.1,8.4,0,12.6,0c1.6,0,3,0.4,4.2,1.4
			C589.9,509.1,582.4,509.1,574.9,509.1z"/>
		<path class="st1" d="M563.8,508.7c1.3-0.4,2.7-0.7,3.9,0.4C566.4,509.2,565.1,509.3,563.8,508.7z"/>
		<path class="st1" d="M1575.8,509.7c-2.2,0.1-4.5,0.5-6.7,0.4c-12.4-0.5-24.9-0.6-37.3-0.4c-9,0.1-18,0.4-27.1,0.3
			c-3.3,0-6.7-0.4-10-0.7c-3.2-0.3-6.3-0.5-9.5-0.7c-2.7-0.1-5.4-0.2-7.9-1.5c-0.2-0.1-0.4,0.1-0.7,0.1c-0.9,0.3-1.3-0.2-1.6-0.9
			c-0.2-1.5,1-2.2,1.8-3c0.5-0.2,1-0.3,1.6-0.1c1.1,0.9,2.1,1.4,3.3,0.1c1-1,2-0.7,2.9,0.2c1,1,2,1.9,3.2,2.7c2,1.4,3.4,1,4.6-1.2
			c0.3-0.6,0.5-1.3,0.5-1.9c0-4.6,2.6-7.2,6.3-9.3c4.2-2.5,8.9-3.8,13.2-6.1c2.8-1.5,3.4-2.6,2-5.3c-2.4-4.7,0.9-9.8,4.1-12.1
			c1.6-1.2,3.3-2.2,5.1-3.1c1.1-0.6,1.9-1.3,2.6-2.3c4.5-1,8.9-0.6,13.3,0.5c1.8,0.4,3.5,1,5.4,1.1c1.2,0.1,2.5-0.2,2.2-1.8
			c-0.7-4.1,1.4-7,4.2-9.4c4-3.4,8.3-6.5,12.9-9.1c4-2.2,8.6-2.9,12.9-4.4c2.2-0.8,4.5-1.2,6.7-2c2.8-1,3.2-1.8,3-4.7
			c-0.6-8.4,3.1-15.1,9.9-19.5c8.6-5.5,18.3-6.9,28.3-5.4c3.1,0.5,5.8,2.2,7.9,4.7c1.5,1.9,3.1,3.7,4.7,5.4c1.4,1.5,2,1.4,3-0.5
			c2.2-4.3,4.5-8.5,8.9-11c2.9-1.7,6-2.9,9.4-3.1c6.8-0.4,13.2,0.6,19.2,4.1c1.4,0.8,2.7,1.7,3.8,2.9c5.1,5.2,9.1,11.1,11.2,18.2
			c0.7,2.6,0.1,5.4,0.3,8.1c0.1,1.6-0.7,3.8,0.9,4.7c1.7,0.9,2.6-1.3,4-2c0.5-0.2,0.9-0.6,1.4-1c3.7-2.9,7.4-2.9,11,0.1
			c1.2,1,2.1,2.2,3,3.4c5.3,7.7,5.8,16.2,4.5,25.1c-0.5,3.2-0.9,6.5-1.2,9.7c-0.4,6.1-0.9,12.2-2.7,18.2c-0.2,0.6-0.3,1.2,0.1,1.8
			c1.2,0.3,1-1,1.6-1.5c0.6-0.1,0.5,0.8,1.3,0.7c1.4-2.5,2.4-5.4,4.3-7.6c0.8-1,1.4-2.8,3-2.1c1.6,0.6,1.5,2.4,1.6,4
			c0,1-0.5,1.8-1.1,2.5c-0.6,0.7-1.5,1.2-1.7,2.2c0.5,1,1.1,0.8,1.7,0.2c3.8-3.4,8.7-3.3,13.3-4c1.6-0.2,1.8,0.8,1.6,2.2
			c-0.5,2.8-0.4,3,2.4,3.5c4,0.7,7.9,2.1,12,1.5c-1,1.3-2.3,1.5-3.8,1.6c-6.1,0.1-12.3-0.1-18.4,0.9c-1.6,0.3-3.2,0.4-4.6,1.6
			c-1.6,1.3-3.8,1.2-5.7,1.2c-6.9-0.2-13.7,1-20.5,1.8c-3.2,0.4-6.5,0-9.8,0.7c-2.3-1.2-3.6-3.5-5.5-5.2c-0.8-0.7-1.4-1.5-2.2-2.2
			c-1.7-1.5-2.9-1.5-4.4,0.2c-0.5,0.6-0.9,1.4-1.9,1.2c-1.1-0.2-1.1-1.2-1.3-2c-1.1-3.2-1.9-6.5-2.4-9.8c-0.1-0.9-0.4-1.8-0.8-2.6
			c-0.3-0.6-0.5-1-1.2-0.9c-0.7,0.1-0.8,0.8-0.8,1.3c-0.2,2-0.4,4.1-0.4,6.1c0.1,3.2-0.6,6.4-1,9.6c-0.1,0.8-0.4,1.5-1.2,1.8
			c-5.8,0-11.6,0-17.4,0c-0.7-1-2-0.8-2.7-0.6c-3.6,0.8-7.1,0.3-10.7,0.4c-0.8,0-1.7-0.1-2.2,0.7c-1.8,0.5-3.8,0.5-5.5,1.5
			c-2.3-2.6-2.9-5.9-3.8-9.1c-0.6-1.9-1.2-3.8-1.6-5.7c-0.2-0.9-0.2-2.1-1.6-1.9c-1.1,0.2-1.3,1.3-1.3,2.2c-0.1,2.4-0.6,4.7-0.8,7.1
			c-0.3,3-1.2,3.5-4.3,2.6c-1.5-0.4-3-1-4.5-1.3c-3-0.7-3.5-0.3-3.5,2.7c0,1.2-0.8,2-1.8,2.2c-1.2,0.3-2.4,0.5-3.6,0.6
			c-6.6,0.7-13.3,0.7-19.9,1.5C1580.5,508.8,1578.2,509.5,1575.8,509.7z"/>
		<path class="st1" d="M1526,464.7c0.2,1.7-0.6,2.7-2.1,3.3c-1.9,0.8-3.7,1.9-5.3,3.2c-2.8,2.3-5.5,6.7-3.2,10.7
			c1.7,3,0.8,5-2.4,6.6c-2.9,1.4-5.8,2.6-8.8,3.8c-2.5,1-4.8,2.4-7,4c-2.1,1.5-3,3.5-3.3,5.8c-0.2,1.1-0.4,2.2-0.9,3.2
			c-1.1,2.2-2.9,2.9-5.2,1.8c-1.1-0.6-2.3-1.2-3.2-2.1c-0.5-0.5-0.9-1.1-1.7-1.3c-3.5,1.9-3.5,1.9-4.5,0c0-0.3,0-0.7,0.3-0.8
			c1.8-0.7,2-2.1,1.8-3.8c-0.1-0.8-0.4-2.2,0.9-2.6c1.3-0.3,1.4,1.1,2,1.8c1.4,2,2.3,4.3,4.3,6c1.6,1.3,2.6,1.1,3.1-0.9
			c0.3-1,0.2-2,0.3-3c0.7-4,3.5-6.2,6.7-8.1c3.8-2.3,8.1-3.5,12.1-5.6c0.5-0.3,1-0.5,1.5-0.8c1.7-1,1.7-1,1.2-3
			c-0.1-0.4,0-0.8,0.2-1.1c-1.5-5.6,0.7-9.1,5-12.6C1520.4,467.3,1523.2,465.9,1526,464.7z"/>
		<path d="M1511.2,486.9c-4.7,2.5-9.8,3.9-14.2,6.9c-2.5,1.7-4.4,3.7-5,6.8c-0.2,0.1-0.3,0.1-0.5,0.1c-0.7,0.1-0.8-0.3-0.5-1.2
			c0.2-1.9,1.1-3.4,2.5-4.7c3-2.6,6.4-4.5,10.1-5.9c3.1-1.2,6.1-2.6,8.9-4.3c0-0.9-0.7-1.5-0.9-2.2c-0.1-0.2-0.1-0.4-0.1-0.6
			c0.5,0,0.9,0,1.4,0c0.1,0.1,0.1,0.3,0.2,0.4C1514.6,485.1,1514.4,485.2,1511.2,486.9z"/>
		<path class="st1" d="M591.7,454.4c-0.5,0.8-1.1,1.5-2.1,1.1c-4.3-1.8-8.7-0.3-13-0.2c-3,0.1-5.7,1.2-8.4,2.5c-1.5,0.7-3,0.8-4-0.8
			c-0.9-1.4-0.4-3.1,1.2-4.4c2.8-2.2,4.5-5.2,3.9-8.5c-0.7-4.1-3.2-7-7.5-8.2c-3.7-1.1-7.5-1.2-11.3-1.6c-7-0.7-12.6,2-17.9,6
			c-2.9,2.2-5.5,4.8-7.5,7.9c-0.8,1.3-1.7,2.7-3.6,2.9c-1.7,0.2-3-0.5-3-2.2c-0.2-3.5-0.6-7,0.5-10.5c0.3-1,0.2-1.8-0.1-2.7
			c-1.1-3.5-3.6-6-5.8-8.7c-0.7-0.8-1.5-0.7-2.4-0.8c-7.2-0.2-13.4,2-18.8,7c-4.5,4.2-8.8,8.5-12.2,13.7c-1.1,1.8-2,3.6-2.8,5.5
			c-0.6,1.5-1.3,3-3.3,3c-1.9,0.1-2.5-1.3-3.4-2.6c-2.9-4.1-5.9-8.2-9.6-11.6c-2.6-2.4-7-1.6-9.4,1.8c-1.9,2.7-3.4,5.6-1.5,9
			c0.6,1.2,0.7,2.8,0.9,4.2c0.6,3.9,1.8,7.6,4.7,10.5c1.1,1,2.1,2.2,1.2,3.7c-0.9,1.5-2.8,1.7-4.1,1.1c-2.5-1.4-5.4-2.4-7.1-5
			c2.4,0.3,4.9,0.4,6.7,2.6c0.7,0.8,1.7,1.1,3.1,0.2c-3.8-2.6-5.2-6.5-6.3-10.4c-1.1-4-2-8.2-1.4-12.3c0.7-5.7,5.4-9.4,11.4-8.8
			c1.6,0.2,2.9,1.4,4,2.6c3.6,3.9,7.2,7.9,9.9,12.6c0.2,0.4,0.5,0.6,1,0.6c1.1-0.5,0.8-1.8,1.2-2.6c1.7-3.7,3.8-7.2,6.5-10.3
			c4.3-4.9,8.8-9.5,14.2-13.1c4.8-3.2,10.1-4,15.6-3.1c3.8,0.6,5.8,3.9,7.8,7c1.1,1.7,1.4,3.7,1.5,5.7c0.1,4,0.2,7.9,0,12.1
			c1.6,0,2.1-1.2,2.7-2.2c3.9-5.8,9-10.1,15.3-13c6-2.7,12.3-2.5,18.6-1.6c2,0.3,4,1.1,6,1.7c7.8,2.4,10.3,11.9,5.3,18.6
			c-0.8,1.1-2.6,1.3-3,3.5c4.1-1.3,7.7-3.4,11.8-3.3c4,0.1,8,0,12,0C590.6,452.6,591.4,453.2,591.7,454.4z"/>
		<path d="M597.1,459C597.1,459.1,597.1,459.1,597.1,459c-0.1,0.6-0.1,1.1-0.2,1.6c-0.6,0-0.5-0.7-0.8-0.9c-0.2,0-0.3,0-0.4-0.1
			c-1.1-0.3-1.3-1.5-1.7-2.3c-0.3-0.6-0.3-1.4-0.7-2c-0.5-0.3-1-0.6-1.5-0.9c-0.8-0.5-1.6-1-2.3-1.5c0,0,0,0-0.1,0
			c-2.7-0.8-5.5-0.2-8.2-0.4c-1-0.1-2.1,0.2-2.8-0.9c0.2,0,0.4,0,0.7-0.1c2.9-0.3,5.9-0.4,8.8,0c3.7,0.4,6.5,2.6,8.5,5.7
			C596.6,457.8,597.1,458.3,597.1,459z"/>
		<path class="st1" d="M1599.4,509.1c-5.9-0.3-11.8,0.8-17.8,0.5c0.6-1.7,2.1-1.5,3.3-1.5c6.2,0.2,12.3-1.2,18.5-1.1
			c1,0,2.1-0.3,3-0.7c1-0.5,1.9-1.2,1.7-2.7c-0.3-1.9,0.4-2.6,2.2-2.4c1.7,0.2,3.3,0.7,4.9,1.2c0.9,0.3,1.7,0.6,2.6,0.7
			c1.9,0.1,2.2-0.2,2.5-2c0.4-2.4,0.7-4.9,0.9-7.3c0-0.6,0-1.3,0.3-1.8c0.3-0.5,0.5-1.3,1.3-1.1c0.7,0.1,1,0.5,1.2,1.3
			c0.6,3.1,1.7,6,2.5,9.1c0.4,1.5,1,2.9,1.6,4.3c0.3,0.7,0.9,1.3,0.6,2.2c-6.2,0.9-12.6,0.2-18.8,0.8c-2.4,0.3-4.9,0.2-7.4,0.2
			C1601.5,508.8,1600.4,508.7,1599.4,509.1z"/>
		<path class="st3" d="M1628.7,507.7c-2.7-3.6-3.3-8.1-4.6-12.2c-0.4-1.3-0.7-2.6-1.5-4c-0.4,2.2-0.8,4.5-1.1,6.7
			c-0.2,1.2-0.2,2.4-0.2,3.6c-0.1,1.6-1,2.2-2.5,2.2c-2,0-3.7-1-5.6-1.4c-1.4-0.3-2.9-1-4.4-0.4c0.3,3.9-0.6,5.2-4.5,5.4
			c-5.9,0.3-11.7,1.5-17.7,1.1c-1.7-0.1-3.3,0.2-4.9,0.8c-1.9,0.2-3.9,1.1-5.8,0.1c0.3-0.9,0.9-1,1.7-1c1.5-0.1,3-0.4,4.5-0.8
			c1.7-0.5,3.4-0.8,5.2-0.6c5.7,0.4,11.3-1,16.9-1.1c0.5,0,1.1-0.2,1.6-0.3c1.5-0.5,1.8-1.1,1.4-2.5c-0.1-0.2-0.2-0.4-0.3-0.7
			c-0.4-1.5,0-2.1,1.5-2.2c1.2-0.1,2.4,0.1,3.6,0.4c1.6,0.4,3.2,0.9,4.8,1.4c0.8,0.3,1.7,0.5,2.8,0c0.2-2.8,0.7-5.8,1.1-8.8
			c0.2-1.4,0.3-2.7,1.1-3.9c0.8-1.2,1.6-1.1,2.3,0.2c0.7,1.4,0.8,2.9,1.2,4.4c1.2,4.1,2,8.4,4.1,12.2c0.2,0.4,0.2,0.9,0.2,1.4
			C1629.3,507.7,1629,507.7,1628.7,507.7z"/>
		<path class="st4" d="M1689.2,508.1c-6.8,0.3-13.5-1.4-20.3-1.9c1-5.5,1.3-11.2,1.7-16.8c0.1-0.8-0.1-1.8,1-1.9
			c1.1-0.1,1.3,0.9,1.5,1.8c0.9,3.8,1.5,7.6,2.8,11.3c0.3,0.8,0.3,1.6,1.2,1.8c0.8,0.2,1.2-0.5,1.7-1c1.8-2.1,2.7-2,4.9-0.2
			c1.5,1.3,2.7,2.8,4.1,4.1C1688.6,506.1,1689.6,506.8,1689.2,508.1z"/>
		<path class="st5" d="M1689.2,508.1c-1.8-2.5-4-4.5-6.2-6.6c-1.6-1.5-2.4-1.4-3.7,0.4c-0.7,0.9-1.1,2.5-2.5,2.3
			c-1.5-0.2-1.4-2-1.7-3.1c-1.1-4.2-2.3-8.4-3.1-13c-1,0.9-0.9,1.8-0.9,2.6c0,4.1-0.3,8.1-1,12.1c-0.2,1.2-0.3,2.6-1.3,3.5
			c-0.3-0.2-0.6-0.3-0.8-0.5c0.9-4.5,1.6-9.1,1.5-13.8c0-1.8,0.1-3.5,0.6-5.2c0.2-0.8,0.4-1.9,1.5-1.9c1.2,0,1.4,1.1,1.6,2
			c0.3,1.3,0.6,2.6,0.9,4c0.8,3.6,1.8,7.2,2.6,10.7c0.9,0.3,1-0.3,1.3-0.6c2.1-2.4,3.6-2.6,6-0.4c2.1,1.8,4.1,3.8,6.2,5.7
			c0.6-0.2,0.1-1.8,1.6-1.8c0.8,1.5-0.3,2.6-1,3.8C1690.5,508.7,1689.9,508.5,1689.2,508.1z"/>
		<path class="st5" d="M1635.1,506.2c-0.1-0.7,0.2-1.3,1-1.3c0.6,0,1.3-0.1,1.9,0c4.4,0.1,8.8-0.1,13.2-0.8c0.3,0,0.6,0.1,0.9,0.1
			c0.4,1.3-0.9,1.1-1.3,1.6c-4.3,0.6-8.7,0.8-13.1,0.6C1636.8,506.3,1635.9,506.2,1635.1,506.2z"/>
		<path class="st5" d="M1491.9,500.5c-0.1,1.2,0,2.4-0.3,3.5c-0.6,2.3-2,2.7-3.8,1.3c-2.4-1.8-3.6-4.6-5.2-7c-0.2-0.4-0.2-1-1-1.1
			c-0.9,2.3,0.9,5.9-3.2,6.6c-0.5,0-0.9,0.1-1.4,0.1c-0.5,0.6-1.3,0.6-1.9,0.9c0,0.6,0.2,1.1,0.4,1.5c0,0,0,0,0,0.1
			c0.3,0.3,0.5,0.8,1,0.8c0.5,0.5,0.6,0.9-0.2,1.4c-1.9-1.1-3.7-2.4-5.4-4c-0.3-0.3-0.7-0.5-0.9-0.8c-0.4-0.6-0.5-1.4,0-2
			c0.4-0.6,1.1-0.5,1.8-0.4c1.2,0.2,2.5,0.5,3.7,0.8c0.6,0.1,1.1,0.2,1.6-0.1c0,0,0,0,0,0c2.7-0.1,2.7-0.1,2.7-2.6
			c0-1.6,0.1-3.2,0.2-4.8c0-0.7,0.3-1.5,1.2-1.5c0.8,0,1.1,0.6,1.3,1.2c0.8,2.5,2.3,4.7,3.6,6.9c0.8,1.4,1.8,2.6,3.4,3.2
			c1.2-1.6,0.4-3.6,1.3-5.1c0.1,0.3,0.3,0.6,0.6,0.8C1491.7,500.4,1491.8,500.5,1491.9,500.5z"/>
		<path class="st1" d="M593.2,455.4c1.4,1.2,2.3,2.7,2.9,4.4c0.1,2.3,0,4.4-1.5,6.4c-0.9,1.2-0.1,2.3,1.8,2.2
			c2.1-0.1,4.1-0.4,6.2-0.7c1.8-0.3,3.6-0.5,5.5-0.3c-0.6,1.9-2.3,2.2-4,2.5c-2.3,0.4-4.7,0.1-7.1,0.7c-1.6,0.4-3.2-0.3-4.2-1.6
			c-1-1.3-0.7-2.8,0.1-4.1c1.1-1.9,1-3.8,0.5-5.8C593.1,457.8,592.9,456.6,593.2,455.4z"/>
		<path class="st0" d="M538.9,488.7c-0.9,0.7-1.2,1.5-1.2,2.1c-0.1,3.3-1.7,6.3-1.8,9.6c-0.1,2.5-1.7,3.4-4,2.4
			c-1.8-0.8-3.4-2-5.4-2.7c0.5,2.2,0.1,2.6-1.9,2.7c-1.3,0-2.3-0.5-3.4-1c-2.4-1-4.9-2-7.5-2.3c-1.9-0.2-2.1,0-2.7,1.9
			c-0.6,2-1.8,2.8-3.9,2.7c-1.4-0.1-3.3-0.9-4.2-1.7c0.5-0.8,1.2-0.5,1.9-0.3c0.8,0.2,1.5,0.5,2.3,0.6c1.2,0.1,2.1-0.2,2.5-1.6
			c0.9-2.9,1.5-3.2,4.5-2.9c2.7,0.3,5.1,1.3,7.5,2.3c0.9,0.3,1.7,1,2.7,0.8c0.4-0.6-0.1-0.9-0.4-1.2c-0.4-0.6-0.7-1.2-0.2-1.7
			c0.4-0.6,1.2-0.5,1.8-0.3c0.5,0.1,0.9,0.3,1.3,0.5c1.5,0.8,3,1.5,4.5,2.3c2.7,1.4,2.9,1.2,3.4-1.8c0.6-3.5,1.2-7.1,2.3-10.5
			c0.2-0.8,0.5-1.6,1.4-1.7c1.1-0.1,1.5,0.7,2,1.5c1.1,2,2.1,3.9,3.1,5.9c1.5,3.1,3.3,6,5,9c0.4,0.7,0.9,1.3,0.4,2.5
			c-2.6-2.4-3.6-5.6-5.3-8.3C541.9,494.8,540.5,491.8,538.9,488.7z"/>
		<path class="st6" d="M460.4,499c-0.9,2-1.2,3.6-1.5,5.2c-0.7,3.3-1.6,3.9-4.8,3.1c-1.3-0.3-2.2,0.4-3.4,1.1
			c-0.1-1.8,0.6-2.5,1.8-2.7c0.5-0.1,1.1,0,1.7,0.2c2.6,0.5,3.1,0.3,3.5-2.3c0.3-2,1.1-3.8,1.5-5.8c0.1-0.6,0.3-1.1,0.9-1.3
			c0.8-0.1,1.1,0.5,1.4,1c0.6,1.1,1.2,2.2,1.7,3.4c1.1,2.7,2.1,5.5,5.6,6.3c-0.9,1.4-1.8,1-2.6,0.5c-1.7-1-2.8-2.6-3.5-4.4
			C462.1,501.9,461.5,500.6,460.4,499z"/>
		<path class="st7" d="M556.2,506.1c1.8-1.1,35.5-1.1,37.2-0.1C592.1,507,558.7,507.2,556.2,506.1z"/>
		<path class="st7" d="M607.2,500.6c-1.1,0.6-2.1,1.6-3,2.6c-1.7,2-4.1,2.7-6.4,3.5c-0.6,0.2-1.4,0.3-1.9-0.3c0-0.8,0.4-0.9,0.9-1
			c2.7-0.5,5.2-1.6,7-3.8c0.6-0.7,1.4-1.3,2.1-2c1.2-1,2-0.9,3,0.4c0.7,0.9,1.1,1.9,1.3,3c0.1,0.6,0.1,1.3,0.8,1.8
			c0.8-0.3,1.3-1,1.8-1.7c1.5-1.9,3.4-1.7,4.8,0.6c-1.1,0.8-1.9-0.6-3.1-0.3c-0.6,0.3-0.9,1.2-1.6,1.8c-0.7,0.7-1.3,1.5-2.4,1.2
			c-1.1-0.3-1.3-1.4-1.5-2.3c-0.2-0.8-0.3-1.7-0.8-2.5C608,501.3,607.8,500.8,607.2,500.6z"/>
		<path class="st3" d="M1545.5,504.7c1.8-1,3.5-1.9,5.2-2.9c1.3-0.7,2.7-1.8,4.2-0.8c1.6,1,1.5,2.7,1.6,4.3c0,0.5-0.1,1-0.9,1
			c-0.8-0.6-0.5-1.7-0.8-2.5c-0.4-1.5-1-1.9-2.4-1.1c-2,1.1-3.9,2.2-5.8,3.4c-1.9,1.2-2.4,1-3-1.1c-0.7-2.5-1.1-5.1-1.1-7.8
			c0-1.8,0-3.6,0-5.6c-1.5,0.2-1.9,1.2-2.3,1.9c-3,4.8-6.4,9.3-10.3,13.5c-1.1,1.2-1.2,1.3-2.7,1.5c-0.4-0.5-0.2-0.9,0.2-1.2
			c4.5-4.5,8.3-9.5,11.6-14.8c0.7-1.1,1.6-2.2,2.3-3.3c0.4-0.5,0.8-1.1,1.6-0.8c0.6,0.2,0.8,0.8,0.8,1.3c0.1,1.9,0.3,3.8,0.3,5.7
			c0,2.4,0.1,4.8,0.6,7.1C1544.8,503.2,1544.9,503.9,1545.5,504.7z"/>
		<path class="st1" d="M1475.6,506.4c-1.3-1-2.8-1.7-4.1-3.3c2.1,0.3,3.8,0.5,5.5,0.7C1476.8,504.8,1475.8,505.4,1475.6,506.4z"/>
	</g>
</g>
</svg>
