<?xml version="1.0" encoding="utf-8"?>
<!-- Generator: Adobe Illustrator 27.1.0, SVG Export Plug-In . SVG Version: 6.00 Build 0)  -->
<svg version="1.1" id="Laag_1" xmlns="http://www.w3.org/2000/svg" xmlns:xlink="http://www.w3.org/1999/xlink" x="0px" y="0px"
	 viewBox="0 0 1843.2 518.4" style="enable-background:new 0 0 1843.2 518.4;" xml:space="preserve">
<style type="text/css">
	.st0{fill:none;stroke:#000000;stroke-width:2;stroke-linecap:round;stroke-linejoin:round;stroke-miterlimit:10;}
</style>
<g>
	<path class="st0" d="M102.23,185.91c-0.24,4.16-0.91,8.29-0.72,12.47"/>
	<path class="st0" d="M1120.89,168.88c-3.14,1.44-4.83,4.45-7.16,6.76c-3.13,3.11-5.98,6.5-8.91,9.81
		c-0.55,0.62-1.17,0.98-1.93,1.19"/>
	<path class="st0" d="M555.05,169.84c-2.9,1.68-4.85,4.28-6.73,6.95c-1.55,2.2-3.15,4.35-4.81,6.47c-0.48,0.61-0.72,1.48-1.9,1.52
		c-1.24,0.04-0.96,1.25-0.96,2.1c-0.01,3.84,0,7.68,0,11.51"/>
	<path class="st0" d="M933,460.35c-0.03,4.95,1.16,9.64,3.12,14.15"/>
	<path class="st0" d="M427.38,168.88c3.07,1.35,4.68,4.29,6.92,6.52c3.13,3.11,5.98,6.5,8.91,9.8c0.86,0.97,1.84,1.5,3.13,1.43"/>
	<path class="st0" d="M1681.94,168.88c-2.25,0.89-3.49,2.9-5.04,4.56c-3.55,3.81-7.18,7.54-10.58,11.49
		c-0.82,0.96-1.09,1.81-1.01,3.14c0.21,3.42,0.07,6.87,0.07,10.31"/>
	<path class="st0" d="M677.43,168.88c1.81,0.86,2.99,2.46,4.3,3.86c3.83,4.09,7.54,8.3,11.31,12.45c1.82,2,2.26,1.94,3.84-0.23
		c2.45-3.38,4.99-6.69,7.42-10.09c1.45-2.03,3.15-3.75,5.29-5.03"/>
	<path class="st0" d="M1165.29,388.14c0,13.03,0,26.07,0,39.1"/>
	<path class="st0" d="M1789.69,198.63c1.43,0.31,2.88,0.24,4.32,0.24c16.24,0,32.48,0,48.71,0"/>
	<path class="st0" d="M977.63,211.58c0,38.22,0,76.44-0.02,114.67c0,0.79,0.28,1.64-0.22,2.4"/>
	<path class="st0" d="M1843.2,100.99c-0.01,1.52-0.83,2.67-1.67,3.85c-5.01,7.06-11.17,13.17-16.55,19.92
		c-8.96,11.27-17.95,22.53-25.89,34.56c-3.19,4.84-5.39,10.25-7.89,15.48c-1.68,3.5-1.48,6.87-1.82,10.39
		c-0.35,3.61-0.41,7.2-0.41,10.8c-0.01,8.8,0.13,17.59-0.04,26.39c-0.15,7.76-0.72,15.52-0.39,23.27
		c0.58,13.75,0.11,27.52,0.55,41.26c0.17,5.44-0.09,10.91,0.46,16.31c0.4,4.02,0.1,8.02,0.41,12c0.48,6.15,0.72,12.31,1,18.47
		c0.23,4.96,0.65,9.91,0.96,14.87c0.37,5.92,0.91,11.84,1.43,17.75c0.42,4.8,0.77,9.63,1.46,14.39c1.17,8.09,2.05,16.22,3.66,24.26
		c1.06,5.3,2.04,10.64,3.58,15.78c1.63,5.43,3.54,10.86,6.33,15.88c0.68,1.22,1.75,2.45,0.99,4.06"/>
	<path class="st0" d="M1633.95,183.04c0.21,0.34,0.76,0.46,0.71,0.96c-0.34,3.69,0.57,7.34,0.27,11.04
		c-0.09,1.11,0.13,2.24,0.21,3.36"/>
	<path class="st0" d="M462.9,426.04c-6.88,0-13.77-0.29-20.63,0.08c-7.84,0.43-15.72,0.24-23.53,1.32
		c-1.96,0.27-3.99,0.04-5.99,0.04c-9.28,0-18.56-0.19-27.84,0.05c-10.08,0.26-20.17,0.77-30.23,1.45
		c-4.33,0.29-8.64,0.41-12.96,0.41c-17.12,0.01-34.24,0-51.35,0c-4.16,0-8.32,0-12.48,0"/>
	<path class="st0" d="M459.78,169.84c-4.1,2.25-6.11,6.39-8.88,9.83c-0.39,0.49-0.85,0.93-1.19,1.45c-1.6,2.48-3.48,4.71-2.74,8.17
		c0.63,2.96-0.69,6.03-0.39,9.1"/>
	<path class="st0" d="M209.49,168.88c2,1,3.33,2.77,4.77,4.35c3.65,4.03,7.28,8.07,11.07,11.96"/>
	<path class="st0" d="M493.62,169.84c-2.4,1.44-4.2,3.44-5.79,5.74c-2.28,3.28-4.77,6.42-7.17,9.62c-1.81,2.42-3.48,2.64-5.5,0.46
		c-3.82-4.1-7.48-8.35-11.32-12.43c-1.47-1.56-2.77-3.35-4.77-4.34"/>
	<path class="st0" d="M1620.03,168.88c-2,1-3.3,2.79-4.77,4.34c-3.84,4.08-7.54,8.29-11.31,12.44c-0.47,0.51-0.91,1.09-1.67,1.2"/>
	<path class="st0" d="M1773.13,307.3c0.12,13.75-0.35,27.52,0.48,41.26"/>
	<path class="st0" d="M1728.49,188.31c-0.53,3.35-0.1,6.72-0.24,10.08"/>
	<path class="st0" d="M415.15,388.14c0.13,12.95-0.28,25.91,0.24,38.86"/>
	<path class="st0" d="M41.03,186.63c-1.38,0.17-1.2,1.21-1.2,2.16c0,3.2,0,6.4,0,9.6"/>
	<path class="st0" d="M1742.41,57.09c-0.49,1.28-1.14,2.46-1.89,3.62c-2.11,3.27-4.36,4.09-8.67,2.86c-1.69-0.48-3.28-1.14-4.56-2.4
		"/>
	<path class="st0" d="M868.21,169.84c-4.22,2.29-6.16,6.64-9.12,10.07c-1.91,2.21-3,5.04-5.29,6.94c-0.7,0.59-0.45,1.28-0.45,1.94
		c-0.03,3.12-0.01,6.24-0.01,9.36"/>
	<path class="st0" d="M177.82,168.88c3.14,1.44,4.83,4.45,7.16,6.76c3.13,3.11,5.97,6.51,8.92,9.8c0.55,0.61,1.19,1.08,1.92,1.44"/>
	<path class="st0" d="M648.16,169.84c-2.4,1.44-4.2,3.44-5.79,5.74c-2.44,3.52-5.33,6.75-7.56,10.39c-1.32,2.17-2.76,4.49-2.56,7.38
		c0.11,1.65-0.61,3.32-0.41,5.03"/>
	<path class="st0" d="M9.12,186.15c-0.42,0.5-1.11,0.8-0.97,1.68c0.56,3.5,0.11,7.04,0.25,10.55"/>
	<path class="st0" d="M740.06,468.98c-0.77-2.31-2.91-1.73-4.56-2.15c-2.68-0.68-5.35-1.46-8.16-1.19
		c-0.68,0.06-1.63-0.45-1.92,0.71c-0.22,0.87,0.07,1.52,0.7,2.17c2.83,2.95,6.09,4.78,10.34,4.3"/>
	<path class="st0" d="M1034.51,476.66c2.22-0.2,2.68-0.84,2.88-4.08c0.03-0.56-0.23-1.33,0.05-1.64c0.67-0.73,0.05-1.86,1.36-2.74
		c2.7,2.83,4.2,7.04,8.19,8.7"/>
	<path class="st0" d="M336.92,169.84c-4.22,2.29-6.23,6.59-9.1,10.09c-1.49,1.82-2.41,4.26-4.19,5.62
		c-2.08,1.59-1.81,3.42-1.83,5.39c-0.02,2.48-0.01,4.96-0.01,7.44"/>
	<path class="st0" d="M585.76,168.88c2,1,3.3,2.79,4.77,4.34c3.84,4.08,7.55,8.29,11.3,12.45c0.33,0.37,0.72,0.62,1.2,0.72"/>
	<path class="st0" d="M196.05,387.9c0,12.79,0,25.59,0,38.38"/>
	<path class="st0" d="M1212.56,168.88c-3.14,1.44-4.83,4.46-7.16,6.76c-3.01,2.98-5.55,6.44-8.92,9.07"/>
	<path class="st0" d="M1321.27,211.58c0.51,0.76,0.22,1.6,0.22,2.4c0.02,53.58,0.02,107.15,0.02,160.73"/>
	<path class="st0" d="M1527.4,168.88c-2.25,0.89-3.49,2.89-5.04,4.56c-3.61,3.91-7.2,7.83-10.8,11.75"/>
	<path class="st0" d="M1089.22,168.88c-1.72,0.8-2.8,2.32-4.06,3.62c-4.53,4.67-8.49,9.87-13.43,14.16
		c-0.77,0.67-0.75,1.82-0.75,2.85c0.01,2.96,0,5.92,0,8.88"/>
	<path class="st0" d="M678.15,169.84c-4.22,2.29-6.23,6.58-9.1,10.09c-1.55,1.9-2.87,4-4.4,6.15c0.77,0.83,1.09,1.91,1.05,3.19
		c-0.1,3.04-0.03,6.08-0.03,9.11"/>
	<path class="st0" d="M229.17,389.34c0,12.71,0,25.43,0,38.14"/>
	<path class="st0" d="M774.86,169.84c-2.4,1.44-4.22,3.42-5.79,5.74c-1.99,2.94-4.39,5.58-6.27,8.62c-0.88,1.43-1.83,3.2-3.78,2.72
		c0,4.11,0,7.79,0,11.47"/>
	<path class="st0" d="M321.8,387.9c0.02,13.67-0.09,27.35,0.24,41.02"/>
	<path class="st0" d="M524.33,168.88c2,1,3.38,2.73,4.75,4.36c2.71,3.21,5.85,6.01,8.44,9.32c0.72,0.92,1.71,1.5,2.64,2.16"/>
	<path class="st0" d="M1182.33,168.88c-2,1-3.3,2.79-4.77,4.34c-4.24,4.49-8.35,9.09-12.51,13.65"/>
	<path class="st0" d="M804.14,168.88c2,1,3.3,2.79,4.77,4.34c3.84,4.08,7.54,8.29,11.31,12.44c0.47,0.51,0.91,1.09,1.67,1.2"/>
	<path class="st0" d="M1080.34,460.83c0.69-2.53,1.74-4.98,1.68-7.68c-0.01-0.69,0.19-1.51-0.96-1.44"/>
	<path class="st0" d="M104.87,439.96c0.93,0.37,1.36,1.47,2.42,1.84c2.03-1.43,2.41-4.05,4.25-5.59c1.32,0.7,1.38,2.56,3.12,2.82
		c0.77-4.41,0.27-9.08,2.04-13.54c2.01,1.53,2.3,3.44,2.51,5.13c0.58,4.65,2.12,8.9,4.39,12.95"/>
	<path class="st0" d="M1477.25,186.39c0.68,0.79,0.47,1.74,0.48,2.64c0.01,3.12,0,6.24,0,9.36"/>
	<path class="st0" d="M1494.29,0.96c-2.82,1.89-3.15,5.11-4.02,7.93c-1.52,4.93-1.08,9.7,2.33,13.9c2.68,3.29,6.32,4.26,10.32,4.3
		c1.34,0.01,2.15,0.14,2.97,1.65c3.7,6.85,9.87,9.61,17.43,9.36c3.54-0.12,7.05-0.9,10.55-1.47c6.93-1.14,7.72-0.15,10.29,4.89
		c2.69,5.26,5.83,10.04,10.83,13.43c6.03,4.08,12.56,6.09,19.93,5.82c5.25-0.2,10.2-1.02,14.6-3.97c0.77-0.52,1.6-0.07,2.2-0.66"/>
	<path class="st0" d="M1462.13,168.88c-3.14,1.44-4.8,4.48-7.16,6.76c-2.56,2.47-4.83,5.24-7.24,7.88
		c-0.38,0.42-0.74,0.91-1.44,0.72"/>
	<path class="st0" d="M1243.76,168.88c-0.86,0.19-1.37,0.86-1.91,1.45c-5.01,5.39-10.01,10.79-14.64,15.78c0,4.44,0,8.36,0,12.28"/>
	<path class="st0" d="M708.63,168.88c3.07,1.35,4.68,4.29,6.92,6.52c3.13,3.11,5.85,6.63,8.95,9.76c3.16,3.18,4.27,2.7,6.42-0.47
		c2.29-3.36,4.85-6.52,7.2-9.84c1.45-2.05,3.13-3.77,5.3-5.02"/>
	<path class="st0" d="M586.48,169.84c-4.22,2.29-6.23,6.59-9.1,10.09c-1.49,1.82-2.41,4.26-4.19,5.62
		c-2.08,1.59-1.81,3.42-1.83,5.39c-0.02,2.48-0.01,4.96-0.01,7.44"/>
	<path class="st0" d="M804.86,169.84c-4.1,2.25-6.06,6.43-8.9,9.82c-1.7,2.04-2.93,4.4-4.62,6.4c0.35,0.99,1.1,0.78,1.75,0.81"/>
	<path class="st0" d="M1654.58,399.42c0.19,2.57-1.08,4.81-1.71,7.19c-0.92,3.47-2.05,6.89-3.09,10.32c-0.05,0.17,0,0.32,0.24,0.48"
		/>
	<path class="st0" d="M1211.6,169.84c2.4,1.44,4.2,3.44,5.79,5.74c2.08,3.01,4.56,5.74,6.48,8.88c0.65,1.07,1.45,2.15,2.85,2.42"/>
	<path class="st0" d="M1650.27,168.88c-2,1-3.37,2.74-4.76,4.36c-2.8,3.27-5.95,6.23-8.7,9.55c-0.51,0.61-1.02,1.31-1.91,1.45"/>
	<path class="st0" d="M754.94,428.68c-1.4,2.85-2.86,5.65-3.42,8.87c-0.28,1.6-0.32,3.24-0.5,4.83c-0.24,2.04-1.26,2.62-2.79,3.1
		c-2.36,0.74-4.49,1.83-6.51,3.32c-2.83,2.09-3.51,5.02-3.8,8.2c-0.05,0.56,0.17,1.2-0.04,1.67c-0.94,2.12-0.54,4.08,0.51,6.01"/>
	<path class="st0" d="M1431.89,168.88c-2,1-3.3,2.79-4.77,4.34c-4.24,4.49-8.35,9.09-12.51,13.65"/>
	<path class="st0" d="M1088.5,169.84c4.1,2.25,6.05,6.44,8.9,9.82c1.74,2.06,3.33,4.29,4.66,6.57c1.44,2.46,2.68,5.24,2.53,8.33
		c-0.06,1.28-0.11,2.57,0.23,3.84"/>
	<path class="st0" d="M995.15,356.71c3.28-1.94,6.64-3.52,10.56-3.88c8.13-0.74,15.21,3.24,17.7,11.81c0.41,1.4,0.06,3.02,0.06,4.54
		c0,1.36,0,2.73,0,4.09c2.97,0.76,5.84,0.95,8.42,2.34c1.25,0.67,2.67-0.24,4.06-0.23c10.56,0.07,21.12,0.13,31.68,0.01
		c11.92-0.13,23.84,0.38,35.76-0.21c0.43-0.02,0.67,0.28,0.72,0.71"/>
	<path class="st0" d="M1383.9,388.14c0,10.79-0.03,21.59,0.03,32.38c0.01,1.64-0.33,2.38-2.19,2.44
		c-8.08,0.29-16.16,0.83-24.24,1.13c-8.72,0.33-17.45,0.29-26.15,0.8c-9.28,0.53-18.58,1.05-27.84,0.77
		c-14.65-0.46-29.28-0.13-43.92-0.34c-0.27,0-0.55,0.06-0.96-0.72c0-11.92,0-24.31,0-36.71"/>
	<path class="st0" d="M210.21,169.84c-4.1,2.25-6.04,6.44-8.9,9.82c-1.82,2.15-2.98,4.76-5.01,6.74c-0.38,0.37-0.59,0.84-0.5,1.43
		c0.55,3.51,0.11,7.04,0.25,10.55"/>
	<path class="st0" d="M1309.03,168.88c-1.81,0.86-2.99,2.46-4.3,3.86c-3.83,4.09-7.54,8.29-11.3,12.45
		c-0.77,0.86-1.6,1.61-2.88,1.44"/>
	<path class="st0" d="M898.2,169.84c-2.4,1.44-4.19,3.45-5.79,5.73c-2.54,3.61-5.55,6.89-7.65,10.82"/>
	<path class="st0" d="M286.76,375.91c-0.04-0.44-0.29-0.74-0.72-0.71c-7.92,0.54-15.84,0.15-23.76,0.21
		c-10.48,0.08-20.96-0.02-31.43,0.09c-0.81,0.01-2.03-1.23-2.64,0.4"/>
	<path class="st0" d="M1338.31,169.84c2.4,1.44,4.18,3.45,5.79,5.73c2.66,3.78,5.52,7.42,8.28,11.1c0.81-0.36,1.53-0.68,2.25-1"/>
	<path class="st0" d="M905.4,470.18c3.2,0.32,6.4,0.64,9.6,0.96"/>
	<path class="st0" d="M55.67,169.84c-4.1,2.25-6.09,6.4-8.89,9.83c-1.75,2.14-3.17,4.5-4.9,6.96c-1.29-1.4-2.5-2.74-3.74-4.07
		c-4.04-4.36-7.84-8.93-12.21-12.99c-0.4-0.38-0.86-0.4-1.23-0.69"/>
	<path class="st0" d="M1178.73,443.79c-1.58,2.58-1.69,5.62-2.6,8.41c-0.9,2.74-1.83,5.47-2.91,8.14c-0.37,0.92-0.99,1.57-1.92,1.92
		"/>
	<path class="st0" d="M932.76,168.88c-2.13,0.85-3.32,2.74-4.81,4.31c-2.29,2.43-4.63,4.81-7.19,6.96"/>
	<path class="st0" d="M352.75,388.14c0,10.64-0.11,21.27,0.07,31.9c0.05,2.87-0.14,5.78,0.41,8.64"/>
	<path class="st0" d="M178.78,169.84c-2.4,1.44-4.19,3.45-5.79,5.74c-2.63,3.76-5.81,7.14-7.89,11.3"/>
	<path class="st0" d="M880.93,455.31c-1.82,1.97-1.62,4.63-2.38,6.96c-1.18,3.65-2.61,7.14-4.77,10.34
		c-0.44,0.66-1.02,0.59-1.49,0.93"/>
	<path class="st0" d="M541.13,211.34c1.09,33.26,0.07,66.53,0.58,99.79c0.1,6.31-0.04,12.66,0.45,18.95
		c0.76,9.91,0.57,19.84,1.05,29.74c0.22,4.54-0.42,9.19,0.8,13.68c0.16,0.6-0.28,1.1-0.24,1.92c2.15,0,4.31,0.07,6.47-0.01
		c7.04-0.25,14.11-0.35,21.11-0.24c9.52,0.15,19.04,0.15,28.56,0.19c10.72,0.05,21.44,0.38,32.16-0.18
		c0.43-0.02,0.67,0.28,0.72,0.71"/>
	<path class="st0" d="M978.11,473.06c0.32,0.08,0.74,0.06,0.94,0.26c2.56,2.56,5.73,2.81,8.87,1.83c3.29-1.03,6.35-0.03,9.36,0.65
		c4.38,0.99,8.73,1.95,13.22,1.78c1.9-0.08,4.07-0.06,5.04-2.35"/>
	<path class="st0" d="M87.11,169.84c-2.4,1.44-4.22,3.42-5.79,5.74c-1.99,2.94-4.39,5.58-6.27,8.62c-0.88,1.43-1.83,3.2-3.78,2.72
		c0,4.11,0,7.79,0,11.47"/>
	<path class="st0" d="M275.48,169.84c-4.22,2.29-6.24,6.58-9.09,10.09c-1.73,2.13-3.22,4.46-4.82,6.7c-2.82-0.48-2.74-0.48-2.66,2.4
		c0.09,3.12,0.02,6.24,0.02,9.36"/>
	<path class="st0" d="M1105.06,470.9c-2.2-0.36-3.91,1.26-5.99,1.53c-0.79,0.1-1.69,0.68-2.1-0.13c-0.32-0.63-0.29-1.58,0.36-2.4
		c0.47-0.59,1.08-1.02,1.49-1.64"/>
	<path class="st0" d="M932.52,464.42c-1.64,2.59-2.19,5.62-3.36,8.4"/>
	<path class="st0" d="M258.93,387.9c0,12.55,0,25.11,0.01,37.66c0,0.88-0.17,1.79,0.23,2.64"/>
	<path class="st0" d="M1033.31,376.15c0.29,0.63,0.84,0.88,1.4,1.26c3.61,2.41,3.92,6.13,3.64,10.02"/>
	<path class="st0" d="M675.03,427.96c-20.72,0-41.44,0.35-62.15-0.12c-13.76-0.31-27.52-0.23-41.28-0.49
		c-6.63-0.12-13.3,0.39-19.91-0.17c-13.98-1.19-28-1.26-42-1.27c-9.19-0.01-18.4,0-27.6,0.13c-3.44,0.05-6.88-0.06-10.32,0.14
		c-1.33,0.08-2.33-1.4-2.87-2.78"/>
	<path class="st0" d="M86.15,168.88c2.97,1.29,4.6,4.06,6.66,6.29c3.15,3.4,6.52,6.62,9.41,10.27c0.45,0.57,1.08,0.48,1.68,0.48"/>
	<path class="st0" d="M397.63,168.88c2,1,3.32,2.77,4.77,4.35c4.06,4.41,7.96,8.98,12.27,13.17"/>
	<path class="st0" d="M509.45,387.9c0,12.55,0,25.11,0,37.66"/>
	<path class="st0" d="M8.64,423.64c-2.24,0.08-4.48,0.22-6.72,0.21c-0.85-0.01-0.76,0.56-0.96,0.99"/>
	<path class="st0" d="M1663.94,80.36c4.42,8.44,12.24,11.99,20.91,13.78c3.54,0.73,7.42,0.55,11.03-1.02
		c3.05-1.33,3.22-1.22,4.75,1.66c1.32,2.49,3.18,4.36,5.56,5.72c3.19,1.84,8.95,2.61,11.75-0.94"/>
	<path class="st0" d="M25.68,169.84c-2.4,1.44-4.18,3.45-5.79,5.73c-2.69,3.82-5.59,7.49-8.67,11.58
		c-3.64-4.28-7.84-7.58-10.5-12.28"/>
	<path class="st0" d="M994.19,168.88c-2.25,0.89-3.49,2.9-5.04,4.56c-3.55,3.81-7.18,7.54-10.58,11.49
		c-0.82,0.96-1.09,1.81-1.01,3.14c0.21,3.42,0.07,6.87,0.07,10.31"/>
	<path class="st0" d="M1059.46,168.88c-3.07,1.35-4.68,4.29-6.92,6.52c-3.13,3.11-5.96,6.51-8.92,9.79
		c-0.71,0.79-1.47,1.5-2.64,1.44c-1.44-0.07-1.45,0.88-1.45,1.92c0.02,3.28,0.01,6.56,0.01,9.84"/>
	<path class="st0" d="M287,388.86c0.32,3.67,0.24,7.36,0.24,11.03c0.01,9.68,0,19.35,0,29.03"/>
	<path class="st0" d="M81.11,6c-0.84,2.04-2.23,3.03-4.56,2.92c-3.19-0.15-6.4-0.04-9.6-0.04"/>
	<path class="st0" d="M1587.87,169.84c2.4,1.44,4.18,3.45,5.79,5.73c2.6,3.68,5.36,7.26,8.16,10.79c0.69,0.87,0.68,1.72,0.68,2.67
		c0.01,3.12,0,6.24,0,9.36"/>
	<path class="st0" d="M1834.56,66.93c2.39,2.07,5.21,3.3,8.16,4.32"/>
	<path class="st0" d="M1461.17,169.84c2.4,1.44,4.18,3.45,5.79,5.73c2.66,3.78,5.52,7.42,8.25,11.05c1.4,0.08,2.05-0.89,2.75-1.68
		c4.46-5.05,9.02-10,13.69-14.86c0.48-0.5,0.89-1.12,1.67-1.2"/>
	<path class="st0" d="M1027.07,169.84c4.1,2.25,6.1,6.39,8.88,9.83c1.71,2.11,3.27,4.32,4.56,6.72"/>
	<path class="st0" d="M366.91,169.84c-2.4,1.44-4.23,3.42-5.79,5.74c-1.46,2.17-3.09,4.25-4.79,6.24c-2.8,3.28-4.3,6.88-3.62,11.3
		c0.26,1.72,0.04,3.51,0.04,5.27"/>
	<path class="st0" d="M380.83,389.34c-0.64,1.8-0.34,3.68-0.5,5.52c-0.61,7.11-0.26,14.24-0.55,21.35
		c-0.11,2.71-0.32,5.43-0.41,8.16c-0.03,0.99,0.18,1.85,0.74,2.64"/>
	<path class="st0" d="M398.35,169.84c-4.22,2.29-6.24,6.58-9.09,10.09c-1.73,2.13-3.22,4.46-4.82,6.7c-1.02,0.05-1.77-0.6-2.64-0.96
		"/>
	<path class="st0" d="M696.15,186.63c1.03,0.82,0.96,1.98,0.96,3.12c0,2.88,0,5.76,0,8.64"/>
	<path class="st0" d="M148.78,169.84c-3.35,1.71-5.16,4.93-7.42,7.69c-2.46,3.01-4.21,6.56-7,9.32c-0.41,0.4-0.51,0.77-0.45,1.22
		c0.52,3.43,0.08,6.88,0.23,10.32"/>
	<path class="st0" d="M836.29,169.84c-2.4,1.44-4.18,3.45-5.79,5.73c-2.6,3.68-5.38,7.24-8.15,10.8c-0.62,0.8-0.56,1.48-0.52,2.42
		c0.16,3.11,0.06,6.23,0.06,9.35"/>
	<path class="st0" d="M1116.57,476.66c2.51-0.25,4.79,0.86,7.19,1.26c0.65,0.11,1.3,0.05,1.93,0.18"/>
	<path class="st0" d="M1119.93,169.84c2.4,1.44,4.19,3.45,5.79,5.74c2.54,3.61,5.55,6.89,7.65,10.82"/>
	<path class="st0" d="M1807.68,169.84c2.4,1.44,4.2,3.44,5.79,5.74c2.28,3.28,4.78,6.41,7.16,9.62c0.51,0.69,0.55,1.36-0.47,1.67"/>
	<path class="st0" d="M1746.01,426.76c0.55,1.14,0.76,2.31,0.75,3.6c-0.04,3.76-0.26,7.54,0.45,11.27"/>
	<path class="st0" d="M1028.03,450.75c-0.09,0.92-0.08,1.74-0.63,2.69c-0.92,1.61-0.77,3.64-0.54,5.46
		c0.76,5.91,0.3,11.84,0.44,17.76"/>
	<path class="st0" d="M438.9,487.69c0.29,4.08,0.38,8.18,0.97,12.23c0.3,2.05-2.28,2.33-2.26,4.05c-1.3,0.28-1.83-1.34-3.13-0.86
		c-0.68,0.67-0.49,1.49-0.14,2.34"/>
	<path class="st0" d="M1308.31,169.84c4.1,2.25,6.07,6.41,8.89,9.83c1.76,2.13,3.11,4.54,4.79,6.73"/>
	<path class="st0" d="M1532.44,6c3.6,3.72,7.86,6.55,12.74,8.08c5.78,1.81,11.67,1.77,17.25-1.12"/>
	<path class="st0" d="M945.96,211.58c0.51,0.76,0.22,1.6,0.22,2.4c0.02,33.5,0.02,67.01,0.02,100.51"/>
	<path class="st0" d="M1276.87,169.84c2.4,1.44,4.25,3.4,5.78,5.75c1.97,3.03,4.51,5.63,6.34,8.82c0.89,1.55,1,2.77,0.9,4.39
		c-0.19,3.19-0.06,6.39-0.06,9.59"/>
	<path class="st0" d="M1558.6,168.88c-2,1-3.3,2.79-4.77,4.34c-3.76,4-7.38,8.13-11.07,12.21c-0.58,0.64-1.18,1.26-2.16,1.2"/>
	<path class="st0" d="M1830.24,123.06c3,4.22,7.19,5.89,12.35,5.75c0.27-0.58,0.72-1.14,0.6-1.91"/>
	<path class="st0" d="M478.02,388.14c0,12.47,0,24.95,0,37.42"/>
	<path class="st0" d="M1647.87,60.21c0.23,2.77,2.79,2.44,4.34,2.75c2.48,0.49,5.15,0.31,7.41-1.31"/>
	<path class="st0" d="M1647.63,60.93c-1.02,0.01-1.93,0.3-2.89,0.69c-6.48,2.59-14.49,0.23-17.57-5.93
		c-0.59-1.19-0.86-3.03-2.81-3.15"/>
	<path class="st0" d="M1526.44,169.84c2.4,1.44,4.2,3.44,5.79,5.74c2.44,3.52,5.03,6.94,7.69,10.3c0.64,0.81,0.68,1.56,0.68,2.43
		c0,3.36,0,6.72,0,10.08"/>
	<path class="st0" d="M1586.19,425.8c-0.15,2.44,0.32,4.87-1.08,7.27c-0.71,1.21-0.39,3.15-0.51,4.73
		c-0.26,3.69-1.14,7.32-1.02,11.03c0.03,1.01-0.42,1.41-1.23,1.68"/>
	<path class="st0" d="M789.98,463.71c1.51,1.32,0.13,3.34,1.15,4.83c0.22,0.33,0.55,0.86,0.53,1.47c1.09-0.26,1.68-1.1,1.88-1.99
		c0.61-2.73,2.55-4.83,3.38-7.43c0.32-1.02,0.88-1.99,1.92-1.84c1.04,0.15,1.18,1.3,1.52,2.3c1.27,3.76,1.02,7.76,2.16,11.78
		c3.05,0,6.18,0.01,9.3,0c11.92-0.04,23.84,0.47,35.75,0.63c5.75,0.08,11.52,0.08,17.28,0.36c1.86,0.09,3.64-1.06,5.52-0.27"/>
	<path class="st0" d="M244.05,169.84c-2.4,1.44-4.14,3.49-5.8,5.73c-2.62,3.53-5.26,7.05-7.78,10.6c-2.55-0.48-2.81-0.27-3.23,1.9
		c-0.66,3.41-0.21,6.92-0.95,10.32"/>
	<path class="st0" d="M466.74,415.25c0.93,2.49,0.91,5.21,1.92,7.68"/>
	<path class="st0" d="M1192.64,388.86c-0.12,4.8-0.23,9.61-0.12,14.39c0.15,6,0.2,12,0.45,17.99c0.07,1.66,0.36,3.35,0.39,5.04"/>
	<path class="st0" d="M835.33,168.88c3.14,1.44,4.83,4.45,7.16,6.76c3.05,3.03,5.79,6.36,8.69,9.55c0.67,0.73,1.45,1.33,2.39,1.68"
		/>
	<path class="st0" d="M71.27,387.9c0,11.27,0,22.55,0,33.82"/>
	<path class="st0" d="M1557.88,169.84c4.1,2.25,6.07,6.41,8.89,9.83c1.76,2.13,3.11,4.54,4.79,6.73"/>
	<path class="st0" d="M146.14,0.96c2.1,0.19,2.3,1.82,2.37,3.36c0.1,2.39,0.24,4.82-0.03,7.19c-0.25,2.18-1.21,4.01-3.51,5.11
		c-2.85,1.35-5.64,2.83-8.66,3.81c-0.86,0.28-1.61,0.93-2.45,1.43c0.66,1.93,2.39,3.47,2.2,5.73c-0.71,8.51-3.99,12.15-11.28,14.41
		c-4.5,1.39-9.11,0.81-13.68,0.95c-0.9,0.03-1.87-0.27-2.64,0.47"/>
	<path class="st0" d="M1195.28,211.34c-0.67,20.87-0.53,41.74-0.44,62.61c0.03,6.88,0.73,13.76,0.38,20.63
		c-0.51,9.92-0.01,19.85-0.5,29.75c-0.66,13.43-1.07,26.86-1.49,40.3c-0.11,3.5,0.02,7.07-0.57,10.65c0.74,0.33,1.58,0.15,2.38,0.14
		c10.8-0.13,21.6-0.06,32.4-0.11c8.95-0.04,17.92,0.07,26.88,0.1c21.36,0.06,42.71,0.1,64.07-0.01c12.16-0.06,24.32,0.38,36.48-0.2
		c0.43-0.02,0.67,0.28,0.72,0.71"/>
	<path class="st0" d="M759.26,211.58c-0.51,0.76-0.22,1.6-0.22,2.4c-0.02,37.1-0.18,74.21,0.06,111.31
		c0.1,16.55,0.03,33.11,0.17,49.66"/>
	<path class="st0" d="M1777.93,238.21c0.24,7.68-0.29,15.37-0.63,23.02c-0.34,7.85-0.33,15.68-0.22,23.51
		c0.06,4.07,0.03,8.19,0.48,12.22c0.32,2.82,0.03,5.63,0.41,8.4c0.69,5.12,0.07,10.26,0.53,15.35c0.33,3.7,0.51,7.35,0.15,11.04"/>
	<path class="st0" d="M759.26,388.14c0,11.51,0,23.03,0.01,34.54c0,0.88-0.17,1.79,0.23,2.64"/>
	<path class="st0" d="M1842.48,387.18c-15.44,0.54-30.88,0.11-46.31,0.24"/>
	<path class="st0" d="M1399.74,169.84c2.4,1.44,4.06,3.57,5.82,5.71c3.1,3.79,5.34,8.26,9.06,11.56c0.53,0.48,0.22,1.12,0.23,1.68
		c0.04,3.2,0.02,6.4,0.02,9.6"/>
	<path class="st0" d="M945.72,186.63c0.28,0.38,0.83,0.56,0.73,1.2c-0.55,3.51-0.11,7.04-0.25,10.55"/>
	<path class="st0" d="M428.34,169.84c-2.4,1.44-4.2,3.44-5.79,5.74c-2.28,3.28-4.79,6.4-7.11,9.66c-0.16,0.22-1.83,1.68,0.42,1.64"
		/>
	<path class="st0" d="M1808.64,168.88c-2.02,0.8-3.18,2.55-4.57,4.07c-3.33,3.63-6.72,7.2-10.06,10.81
		c-0.86,0.93-1.79,1.84-2.17,3.11"/>
	<path class="st0" d="M881.17,454.11c1.49,5.21,0.17,10.58,0.96,15.83"/>
	<path class="st0" d="M697.11,387.66c-0.53,13.27-0.53,26.55-0.48,39.82"/>
	<path class="st0" d="M897.24,168.88c2.87,1.23,4.36,3.97,6.45,6.02c3.96,3.88,7.24,8.41,11.51,12.01c0.64,0.54,0.52,1.69,0.52,2.6
		c0,2.88,0,5.76,0,8.64"/>
	<path class="st0" d="M1821.6,186.87c0,3.84,0,7.68,0,11.51"/>
	<path class="st0" d="M1680.98,169.84c2.4,1.44,4.17,3.47,5.8,5.73c2.54,3.53,5.31,6.9,7.64,10.58"/>
	<path class="st0" d="M790.7,186.87c-0.55,3.83-0.09,7.68-0.24,11.51"/>
	<path class="st0" d="M1383.9,187.35c0,3.6,0,7.2,0,10.8"/>
	<path class="st0" d="M1788.01,70.77c-0.53,8.23-1.25,16.45-0.96,24.71"/>
	<path class="st0" d="M1150.17,169.84c2.4,1.44,4.06,3.57,5.82,5.71c3.1,3.79,5.34,8.26,9.06,11.56c0.53,0.48,0.22,1.12,0.23,1.68
		c0.04,3.2,0.02,6.4,0.02,9.6"/>
	<path class="st0" d="M730.7,387.9c0,13.19,0,26.39,0,39.58"/>
	<path class="st0" d="M1665.38,388.14c0,8.64,0,17.27,0,25.91c0,1.04,0.08,2.1-0.24,3.12"/>
	<path class="st0" d="M1038.1,388.38c-1.94,4.19-4.03,8.33-5.31,13.25c2.6-0.33,4.65-0.76,6.75-0.83
		c6.7-0.24,10.96,4.86,12.18,10.62c0.36,1.69,0.8,3.45,0.57,5.27c-0.17,1.36,0.31,1.77,1.91,1.52c2.73-0.44,5.18,0.66,7.18,2.57
		c2.75,2.62,2.18,5.73,1.2,8.87c-0.26,0.82-0.54,1.65-0.97,2.39c-1.03,1.8-1.78,3.67-1.9,5.77"/>
	<path class="st0" d="M1258.88,187.59c-0.53,3.59-0.1,7.2-0.24,10.79"/>
	<path class="st0" d="M1833.12,446.43c-0.39,0.85-1.32,1.38-1.42,2.22c-3.63,0.2-4.34-3.33-6.5-5.09"/>
	<path class="st0" d="M544.01,389.34c0,8.96,0.06,17.91-0.03,26.87c-0.04,3.36-0.45,6.72-0.69,10.08"/>
	<path class="st0" d="M1133.85,186.87c0,3.84,0,7.68,0,11.51"/>
	<path class="st0" d="M616,168.88c2,1,3.3,2.79,4.77,4.34c3.76,4,7.38,8.13,11.07,12.21c0.58,0.64,1.18,1.26,2.16,1.2"/>
	<path class="st0" d="M492.66,168.88c2.36,0.94,3.65,3.07,5.27,4.81c3.97,4.27,8.1,8.4,11.77,12.94"/>
	<path class="st0" d="M1746.49,153.77c0.28,2.56,0.9,5.08,0.72,7.68c-0.3,4.49,0.33,8.96,0.58,13.43
		c0.41,7.36,0.52,14.73,0.96,22.07c0.51,8.41-0.17,16.82,0.46,25.19c0.57,7.61,0.14,15.2,0.39,22.8"/>
	<path class="st0" d="M1571.56,187.35c0,3.6,0,7.2,0,10.8"/>
	<path class="st0" d="M683.19,436.36c-0.14-2.8-0.59-5.45-3.6-6.72"/>
	<path class="st0" d="M971.87,449.07c1.88,2.92,2.23,6.37,3.06,9.61c1.15,4.48,2.17,9,2.56,13.65c0.09,1.09-0.33,1.92-0.34,2.89"/>
	<path class="st0" d="M1619.31,169.84c4.1,2.25,6.09,6.4,8.88,9.83c1.6,1.97,3,4.08,4.31,6.24"/>
	<path class="st0" d="M439.62,489.85c3.17,3.84,6.29,7.72,8.91,11.97c0.33,0.53,0.37,1.54,1.4,1.46"/>
	<path class="st0" d="M1449.65,389.34c0,9.6,0,19.19,0,28.79"/>
	<path class="st0" d="M727.83,187.59c-0.49,3.58-1.36,7.13-0.96,10.79"/>
	<path class="st0" d="M885.72,186.87c-0.87-0.55-1.34-0.33-1.19,0.72c0.49,3.51,0.1,7.04,0.23,10.56"/>
	<path class="st0" d="M554.09,168.88c3.14,1.44,4.84,4.45,7.16,6.76c3.44,3.44,6.6,7.15,9.88,10.75"/>
	<path class="st0" d="M1837.68,169.84c2.62,1.5,4.99,3.2,5.52,6.48"/>
	<path class="st0" d="M633.04,388.86c0.18,0.46,0.24,0.93,0.25,1.44c0.34,11.83,0.62,23.67,0.47,35.5"/>
	<path class="st0" d="M885.24,329.37c-0.38,2.8-1.38,5.52-0.89,8.53c-3.36,0.39-6.4-0.29-9.42-0.45c-8.46-0.45-14.39,3.6-18.88,10.2
		c-0.69,1.02-2.12,1.42-2.24,2.82"/>
	<path class="st0" d="M1100.74,463.47c-4.07,2.38-7.39,5.71-11.03,8.65c-1.01,0.82-1.93,1.75-2.89,2.63"/>
	<path class="st0" d="M789.02,463.71c-1.36,1.68-1.35,3.87-2.13,5.77c-1.26,3.06-1.89,3.49-5.31,3.6
		c-13.44,0.45-26.88,0.12-40.32,0.23"/>
	<path class="st0" d="M1008.59,187.59c1.6,3.46,0.56,7.22,1.2,10.79"/>
	<path class="st0" d="M790.46,211.58c0,33.58,0.19,67.17-0.07,100.75c-0.15,19.99-0.03,39.98-0.16,59.97
		c-0.01,0.88-0.17,1.79,0.23,2.64"/>
	<path class="st0" d="M931.8,169.84c2.4,1.44,4.15,3.48,5.8,5.73c2.64,3.6,5.37,7.13,7.88,10.82"/>
	<path class="st0" d="M415.15,187.11c0,3.76,0,7.52,0,11.27"/>
	<path class="st0" d="M27.84,75.57c0.15,0.83-0.28,1.23-0.94,1.7c-9.33,6.65-16.91,15.22-25.23,22.99
		c-0.39,0.36-0.55,0.76-0.71,1.22"/>
	<path class="st0" d="M1684.58,429.64c0.18,2.57-0.83,4.83-1.6,7.22c-1.35,4.21-2.12,8.61-3.92,12.69c-0.6,1.36-1.18,2.76-2.87,3.12
		"/>
	<path class="st0" d="M1321.51,387.9c0,12.31,0,24.63,0,36.94"/>
	<path class="st0" d="M1056.58,477.86c-0.56-0.24-1.19-0.39-1.67-0.74c-1.78-1.29-3.38-1.48-4.82,0.49
		c-0.23,0.31-0.63,0.49-0.95,0.73c-0.45-0.3-0.99-0.52-0.96-1.2"/>
	<path class="st0" d="M1039.3,388.38c0.38,3.52,0.41,7.04,0,10.56"/>
	<path class="st0" d="M117.34,169.84c-2.4,1.44-4.2,3.44-5.79,5.74c-2.2,3.2-4.62,6.25-6.92,9.38c-0.3,0.41-0.84,0.84-0.25,1.43"/>
	<path class="st0" d="M164.86,187.35c0.51,3.67,0.12,7.36,0.24,11.03"/>
	<path class="st0" d="M1105.54,211.34c-0.18,3.93,0.56,7.85,0.44,11.75c-0.74,24.39,0.25,48.8-0.61,73.16
		c-0.79,22.4-0.51,44.78-0.86,67.17c-0.06,3.91-0.42,7.84-0.4,11.95c0.51,0.23,1.35,0.03,2.15,0.04c8.16,0.02,16.32,0.01,24.48,0.01
		c10.56,0,21.12,0.08,31.68-0.02c9.92-0.09,19.84,0.36,29.76-0.21c0.43-0.02,0.67,0.28,0.72,0.71"/>
	<path class="st0" d="M1701.14,423.4c-0.04,3.83,1.51,7.34,2.16,11.03"/>
	<path class="st0" d="M1663.7,79.88c-0.76,0.32-1.2,0.83-1.47,1.67c-2.16,6.72-7.57,9.35-15.83,8.04c-3.04-0.48-6.16-0.66-9.09-1.6
		c-3.84-1.23-7.46-3.09-10.29-6c-2.57-2.64-5.68-2.67-8.66-2.01c-4.18,0.92-8.02,0.03-11.76-1.35c-8.03-2.95-12.52-9.06-14.38-17.23
		c-0.23-1-0.27-1.91-1.47-2.15"/>
	<path class="st0" d="M1321.51,198.39c0.1-3.76-0.24-7.53,0.27-11.51c-0.57,0-1.14,0-1.71,0"/>
	<path class="st0" d="M478.02,187.59c0,3.6,0,7.2,0,10.79"/>
	<path class="st0" d="M1696.82,387.9c0,9.52,0,19.03,0,28.55"/>
	<path class="st0" d="M1492.61,169.84c4.22,2.29,6.23,6.58,9.1,10.09c1.62,1.99,3.01,4.18,4.48,6.24c2.79-0.52,3.1-0.39,3.41,3.1
		c0.27,3.02,0.83,6.05,0.53,9.11"/>
	<path class="st0" d="M900.6,470.18c-3.07,0.01-6.17-0.23-9.12,0.96c-1.25,0.51-2.56,0.11-3.84,0.24"/>
	<path class="st0" d="M1227.2,388.14c0,11.51-0.01,23.03,0.02,34.54c0,0.79-0.28,1.64,0.22,2.4"/>
	<path class="st0" d="M1077.22,450.27c-0.75-0.95-0.32-2.08-0.5-3.12c-0.61-3.68-3.31-5.27-6.45-6.51
		c-2.12-0.83-4.26-1.02-6.49-0.95c-1.45,0.05-2.63,0.4-3.12,1.93"/>
	<path class="st0" d="M73.19,17.51c-0.64,2-1.45,3.96-1.89,6c-1.53,7.04-8.09,8.07-13.19,6.35c-2.17-0.73-3.5-1.06-5.11,0.81
		c-3.83,4.47-9,3.25-13.88,2.87c-1.98-0.16-3.92-0.64-5.57-2.07c-0.85-0.74-1.23-1.41-1.16-2.45"/>
	<path class="st0" d="M1445.57,183.52c1.09,0.88,0.12,1.92,0.2,2.88c0.31,3.99,0.77,7.98,0.52,11.99"/>
	<path class="st0" d="M1106.26,470.18c-1.53,0.63-1.12,2.25-1.61,3.39c-0.39,0.91,0.55,1.11,1.37,1.19c1.77,0.18,3.52,0.46,5.28,0.7
		"/>
	<path class="st0" d="M304.52,168.88c3.14,1.44,4.84,4.45,7.16,6.76c3.44,3.44,6.6,7.15,9.88,10.75"/>
	<path class="st0" d="M1571.56,388.14c0,9.44,0,18.87,0,28.31"/>
	<path class="st0" d="M1745.53,427.72c-1.43,2.63-1.69,5.62-2.62,8.4c-1.07,3.22-1.83,6.53-3.35,9.61c-0.55,1.12-1.01,2.25-1.95,3.1
		"/>
	<path class="st0" d="M290.84,185.43c-0.45,1.01-0.28,2.09-0.22,3.12c0.21,3.3-0.34,6.56-0.5,9.84"/>
	<path class="st0" d="M1133.85,387.9c0,6.8,0,13.59,0,20.39c0,4.08-0.03,8.16,0.01,12.23c0.02,1.84-0.54,3.23-2.41,3.84"/>
	<path class="st0" d="M616.72,169.84c-4.1,2.25-6.1,6.39-8.88,9.83c-0.46,0.57-0.99,1.1-1.43,1.69c-2.51,3.34-4.33,6.85-3.65,11.28
		c0.29,1.88,0.05,3.83,0.05,5.75"/>
	<path class="st0" d="M1700.9,427c-1.64,2.65-1.68,5.78-2.57,8.66c-0.42,1.35-0.98,2.66-1.26,4.06"/>
	<path class="st0" d="M243.09,168.88c2.36,0.94,3.66,3.06,5.27,4.81c3.79,4.13,7.84,8.03,11.29,12.46"/>
	<path class="st0" d="M853.57,350.96c-0.64,2.8-1.07,5.67-1.98,8.38c-0.99,2.94-0.87,5.9-0.91,8.89c-0.01,0.88,0.16,1.79-0.15,2.67
		c-4.55,0.56-9.04,0.44-13.52,0.44c-4.86,0-9.22,1.48-12.94,4.58c-3.93,3.27-7.55,6.84-10.62,10.98c-1.28,1.72-1.95,3.55-2.06,5.56
		c-0.08,1.49-0.75,1.62-1.97,1.71c-3.44,0.24-6.88,0.27-10.32,0.18c-2.89-0.07-5.59,0.33-7.92,2.18"/>
	<path class="st0" d="M665.67,388.14c0,11.43-0.01,22.87,0.02,34.3c0,0.79-0.28,1.64,0.22,2.4"/>
	<path class="st0" d="M39.83,211.58c0,54.45,0,108.91,0,163.36"/>
	<path class="st0" d="M116.38,168.88c3.14,1.44,4.84,4.44,7.16,6.76c3.52,3.52,6.76,7.31,10.12,10.99"/>
	<path class="st0" d="M1803.61,423.16c3.13-0.33,6.27,0.09,9.35,0.38c3.3,0.31,6.57,0.31,9.85,0.33c6.64,0.03,13.27,0.67,19.92,0.5"
		/>
	<path class="st0" d="M1537.96,415.49c2.48,0.24,4.96,0.67,7.44,0.68c7.54,0.03,15.04,0.67,22.56,0.94
		c13.43,0.48,26.87,0.7,40.31,0.56c9.84-0.1,19.68-0.03,29.52-0.01c0.9,0,1.87-0.27,2.64,0.47"/>
	<path class="st0" d="M1354.86,211.58c-0.24,0.16-0.26,0.32-0.25,0.48c0.37,9.44-0.38,18.87-0.6,28.3c-0.13,6,0.07,12.03-0.47,17.98
		c-0.38,4.18,0.08,8.36-0.44,12.48c-0.52,4.09,0.04,8.21-0.49,12.23c-0.65,4.9-0.13,9.77-0.41,14.64
		c-0.51,8.96-0.1,17.92,0.08,26.87c0.12,6.17,0.53,12.34,1.33,18.48c0.34,2.61,0.28,5.29,0.4,7.92c0.18,4.07,0.44,8.17,0.74,12.22
		c0.3,4,0.01,8.03,0.55,12.24c1.7,0,3.39,0.05,5.07-0.01c7.84-0.28,15.71-0.31,23.51-0.23c9.35,0.09,18.72,0.16,28.08,0.19
		c12.48,0.04,24.96,0.38,37.44-0.18c0.43-0.02,0.67,0.28,0.72,0.71"/>
	<path class="st0" d="M1722.5,29.03c1.43,3.9,2.97,7.72,6.23,10.56c4.77,4.16,10.37,6.25,16.56,7.25c2.99,0.48,5.78,0.43,8.67-0.49
		c1.56-0.5,2.78-1.3,3.81-2.46c0.97-1.08,1.69-0.89,2.42,0.25c4.49,6.98,11.51,9.13,19.18,10.39c4.96,0.82,9.46-0.06,13.94-1.97
		c0.53-0.23,0.76-0.69,1.19-0.98"/>
	<path class="st0" d="M1695.86,186.15c0.6,0.69,1.2,1.11,1.07,2.41c-0.32,3.25-0.11,6.55-0.11,9.82"/>
	<path class="st0" d="M1028.51,453.15c1.51,1.32,0.8,3.26,1.07,4.82c1.01,5.83,2.37,11.56,3.87,17.28c0.17,0.63,1.26,1.04,0.58,1.89
		"/>
	<path class="st0" d="M915.96,317.13c2.15,1.65,4.88,2.31,6.96,4.08"/>
	<path class="st0" d="M867.49,168.88c1.81,0.86,2.99,2.46,4.3,3.86c4.14,4.42,8.18,8.93,12.26,13.41"/>
	<path class="st0" d="M1586.67,431.56c1.49,1.04,0.86,2.81,1.06,4.1c0.89,5.71,2.64,11.19,4,16.77c0.6,2.47,2.02,4.75,1.66,7.44"/>
	<path class="st0" d="M1729.45,375.67c-0.32,3.6-0.37,7.25-1.05,10.78c-0.56,2.89-0.24,5.78-0.79,8.67
		c-0.83,4.36-1.16,8.8-1.93,13.19c-0.72,4.14-1.21,8.32-1.95,12.47c-0.7,3.89-1.64,7.75-2.83,11.46c-0.92,2.87-3.42,4.99-6.56,6.07
		c-5.31,1.82-10.56,3.83-15.85,5.72c-2.56,0.91-5.25,1.24-7.92,1.69"/>
	<path class="st0" d="M1058.5,169.84c2.4,1.44,4.17,3.47,5.8,5.73c2.54,3.53,5.31,6.9,7.64,10.58"/>
	<path class="st0" d="M1530.52,391.74c-0.51,0.88-0.09,1.82,0.06,2.63c0.61,3.22-0.85,6.1-1.36,9.11c-0.5,2.96-0.95,5.95-1.58,8.89"
		/>
	<path class="st0" d="M1817.04,427c-1.31,1.79-1.23,3.99-1.62,6.01c-0.84,4.34-1.25,8.74-1.02,13.18c0.08,1.49-0.62,2.77-1.19,4.08"
		/>
	<path class="st0" d="M268.05,421.01c0.47,2.82-1.54,4.87-2.53,7.14c-1.17,2.7-2.29,5.36-2.99,8.21"/>
	<path class="st0" d="M571.37,387.9c0,13.03,0,26.07,0,39.1"/>
	<path class="st0" d="M1684.58,434.44c0.38,0.32,0.74,0.73,0.7,1.2c-0.3,3.76-0.2,7.52-0.22,11.28"/>
	<path class="st0" d="M1070.98,387.9c0,11.27,0,22.55-0.01,33.82c0,0.88,0.17,1.79-0.23,2.64"/>
	<path class="st0" d="M1369.74,169.84c4.1,2.25,6.09,6.4,8.89,9.83c1.68,2.05,3.07,4.3,4.55,6.48"/>
	<path class="st0" d="M1290.31,211.34c0.23,13.04-0.59,26.06-0.58,39.1c0,6.48-0.02,12.96,0.11,19.43
		c0.29,14.16-0.98,28.31-0.4,42.46c0.23,5.52,0.03,11.06,0.44,16.55c0.94,12.79,0.22,25.59,0.36,38.39
		c0.03,2.86-0.43,5.75-0.41,8.64"/>
	<path class="st0" d="M1136.25,413.81c-0.24,3.12,0.57,6.12,1.24,9.11c0.28,1.22,0.22,2.28-0.28,3.37"/>
	<path class="st0" d="M938.28,450.27c0.08,0.4,0.34,0.87,0.21,1.19c-1.24,3.14,0.07,6.26,0.15,9.36c0.12,4.79,0.86,9.58,0.84,14.4"
		/>
	<path class="st0" d="M939.24,452.19c1.63,2.78,2.39,5.92,3.61,8.87c1.38,3.34,3.22,6.47,4.59,9.82c0.25,0.61,0.01,0.98-0.05,1.46"
		/>
	<path class="st0" d="M647.2,168.88c3.07,1.35,4.68,4.29,6.92,6.52c3.44,3.44,6.6,7.15,9.88,10.75"/>
	<path class="st0" d="M471.54,426.52c0.09,2.81,1.6,4.75,3.84,6.24"/>
	<path class="st0" d="M742.7,168.88c0.86,0.19,1.36,0.86,1.91,1.44c5.04,5.36,10.15,10.67,14.88,16.31"/>
	<path class="st0" d="M1843.2,77.48c-0.67,2.25-2.78,3.23-4.37,4.49c-9.97,7.91-19.97,15.8-30.92,22.35
		c-3.83,2.29-7.8,4.38-12.47,4.33c-3.54-0.04-6.62-2.85-7.51-6.22c-0.6-2.26-0.03-4.54-0.65-6.73"/>
	<path class="st0" d="M165.1,388.14c0.02,12.07-0.09,24.15,0.24,36.22"/>
	<path class="st0" d="M1477.73,388.14c0,8.64-0.01,17.27,0.02,25.91c0,0.8-0.29,1.64,0.22,2.4"/>
	<path class="st0" d="M1821.6,387.9c0,11.83,0,23.67,0,35.5"/>
	<path class="st0" d="M54.95,168.88c0.86,0.19,1.36,0.86,1.91,1.44c5.04,5.36,10.15,10.67,14.88,16.31"/>
	<path class="st0" d="M1817.52,424.6c-0.97,1.92,0.67,3.47,0.87,5.26c0.38,3.45,0.89,6.93,1.72,10.34c0.46,1.91,0.89,3.8,2.25,5.23
		c0.81,0.85,0.07,1.04-0.28,1.47"/>
	<path class="st0" d="M971.39,448.83c-1.08,1.61-1.1,3.49-1.16,5.28c-0.13,3.67-0.06,7.36-0.02,11.03c0.01,0.73-0.13,1.43,0.38,2.21
		c0.36,0.55,0.31,1.67-0.4,2.34c-3.91,3.69-8.25,5.92-13.93,5.13c-2.58-0.36-5.14-0.68-7.67-1.29"/>
	<path class="st0" d="M1665.38,211.58c0,54.45,0,108.91,0,163.36"/>
	<path class="st0" d="M1186.65,455.07c-1.79-0.53-2.44,0.85-3.38,1.9c-1.03,1.15-1.56,2.69-2.86,3.62"/>
	<path class="st0" d="M336.2,168.88c1.81,0.86,2.99,2.46,4.3,3.86c4.14,4.42,8.18,8.93,12.26,13.41"/>
	<path class="st0" d="M962.51,168.88c-2,1-3.32,2.77-4.77,4.35c-4.06,4.41-7.96,8.98-12.27,13.17"/>
	<path class="st0" d="M1243.04,169.84c4.1,2.25,6.07,6.42,8.9,9.82c1.4,1.68,2.57,3.52,3.8,5.31c1.87,2.7,3.64,2.92,6,0.45
		c3.04-3.2,5.81-6.67,8.94-9.77c2.32-2.31,4.01-5.32,7.16-6.76"/>
	<path class="st0" d="M602.8,388.14c0,11.83,0,23.67,0,35.5"/>
	<path class="st0" d="M447.06,389.34c1.11,12.07-0.05,24.15,0,36.22"/>
	<path class="st0" d="M381.79,211.34c-0.09,7.2,0.36,14.4,0.63,21.58c0.21,5.52-0.13,11.07,0.4,16.55
		c0.5,5.21-0.03,10.43,0.52,15.59c0.41,3.86-0.07,7.72,0.44,11.52c0.62,4.65,0.04,9.3,0.46,13.92c0.94,10.39,0.41,20.8,0.33,31.19
		c-0.05,5.5-0.41,11.05-0.9,16.55c-0.42,4.64-0.66,9.28-0.98,13.91c-0.41,5.92-0.9,11.82-0.97,17.76c-0.02,1.74-0.59,3.5-0.15,5.28"
		/>
	<path class="st0" d="M922.68,322.65c1.36-3.34,4.64-4.08,7.46-5.22c5.82-2.35,12.02-2.96,18.21-2.38
		c4.58,0.43,8.82,2.05,11.03,6.65c0.83,1.72,1.82,3.46,0.78,5.53c-0.29,0.58-0.27,1.52,0,2.12c0.57,1.28,1.44,0.14,2.11-0.01
		c8.28-1.87,16.15-0.96,23.78,2.87c6.44,3.23,10.38,11.25,8.75,19.01c-0.36,1.7-1.8,3.98,0.35,5.73c-0.38,0.32-0.62,0.72-0.72,1.2"
		/>
	<path class="st0" d="M790.22,387.9c0.39,2.87-0.75,5.83,0.62,8.68c0.16,0.34-0.45,1.57-0.81,2.37c-1.76,3.87-4.3,7.28-6.31,11
		c-1.97,3.64-3.51,7.41-4.05,11.53c-0.17,1.32-0.85,1.84-2.17,1.94c-3.52,0.28-7.04,0.33-10.56,0.53c-3.42,0.2-6.88,0.82-9.6,3.28
		c-0.99,0.9-2.03,1.25-3.38,0.75c-0.56-0.21-1.27-0.03-1.91-0.03c-17.6,0-35.2,0-52.79,0c-5.68,0-11.36,0-17.04,0
		c-0.89,0-1.78-0.09-2.62,0.25c-1.89-1.52,0.62-4.49-2-5.86c-1.68,3.05-2.14,6.38-2.56,9.69c-0.2,1.58-1.03,3.15-0.26,4.8"/>
	<path class="st0" d="M1724.42,417.41c-0.64-0.08-1.28-0.24-1.92-0.23c-7.76,0.19-15.49-0.76-23.28-0.32
		c-9.58,0.54-19.19,0.51-28.79,0.83c-1.53,0.05-3.12,0.76-4.54-0.08c-1.6-0.94-3.25,0.05-4.64-0.2c-1.39-1.83,1.4-3.2-0.01-4.97
		c-2,1.11-3.93,2.26-5.95,3.27c-0.99,0.49-2.16,1.12-3.11-0.21"/>
	<path class="st0" d="M1414.86,211.58c0,54.45,0,108.91,0,163.36"/>
	<path class="st0" d="M446.34,211.58c0.55,2.79,0.18,5.6,0.22,8.4c0.07,5.68-0.15,11.36,0.05,17.03
		c1.01,27.82,0.37,55.66,0.34,83.48c-0.01,10.22-0.97,20.48-0.72,30.7c0.18,7.52,0.21,15.04,0.36,22.55
		c0.01,0.48,0.15,0.96,0.23,1.44"/>
	<path class="st0" d="M812.29,387.66c-0.77-0.38-1.6-0.23-2.4-0.23c-16-0.01-32-0.01-47.99-0.01c-14.4,0-28.8,0.27-43.19-0.07
		c-16.72-0.39-33.44,0.25-50.16,0.11c-20.96-0.18-41.91-0.11-62.87-0.02c-11.44,0.05-22.88,0.16-34.31,0.09
		c-19.76-0.12-39.52,0.01-59.27-0.11c-10.4-0.06-20.8-0.01-31.2-0.01c-20.96,0-41.91,0-62.87,0c-20.8,0-41.59-0.07-62.39,0.03
		c-11.28,0.05-22.56,0.17-33.83,0.1c-20.08-0.13-40.16-0.03-60.23-0.11c-20.96-0.08-41.91-0.02-62.87-0.02
		c-10.4,0-20.8-0.08-31.2,0.02c-11.12,0.1-22.24,0.18-33.36,0.1c-20.08-0.14-40.16,0.01-60.23-0.11c-10.4-0.06-20.8-0.01-31.2-0.01
		c-9.68,0-19.36,0.02-29.04-0.01c-4.08-0.01-8.16-0.15-12.24-0.23"/>
	<path class="st0" d="M1730.89,210.86c-10.24,0-20.48,0-30.72,0c-10.8,0-21.6-0.08-32.4,0.02c-10.8,0.1-21.6,0.06-32.4,0.09
		c-9.99,0.03-20-0.02-30-0.1c-10.24-0.08-20.48-0.02-30.72-0.02c-10.56,0-21.12-0.08-31.68,0.02c-10.96,0.11-21.92,0.05-32.88,0.09
		c-9.83,0.04-19.68-0.02-29.52-0.1c-10.24-0.08-20.48-0.02-30.72-0.02c-10.72,0-21.44,0-32.16,0c-10.24,0-20.48,0-30.72,0
		c-9.76,0-19.52,0-29.28,0c-11.28,0-22.56-0.08-33.84,0.02c-11.2,0.1-22.4,0.04-33.6,0.1c-9.67,0.05-19.36-0.03-29.04-0.1
		c-10.56-0.08-21.12-0.09-31.68,0c-11.44,0.1-22.88,0.02-34.32,0.1c-9.03,0.06-18.08-0.04-27.12-0.1
		c-10.56-0.07-21.12-0.02-31.68-0.02c-20.96,0-41.91,0-62.87,0c-10.4,0-20.8,0-31.2,0c-9.92,0-19.84,0-29.76,0
		c-10.72,0-21.44,0-32.16,0c-10.56,0-21.12,0-31.68,0c-7.04,0-14.09,0.28-21.11-0.06c-13.44-0.66-26.88-0.31-40.32-0.4
		c-10.56-0.07-21.12-0.09-31.68,0.01c-11.28,0.11-22.56-0.06-33.84,0.12c-9.59,0.15-19.19,0.55-28.8,0.38
		c-10.08-0.19-20.16-0.12-30.24-0.02c-12,0.12-24,0-36,0.1c-8.87,0.07-17.76-0.04-26.64-0.1c-10.56-0.08-21.12-0.02-31.68-0.02
		c-11.52,0-23.04,0-34.56,0c-9.44,0-18.88,0-28.32,0c-10.56,0-21.12-0.08-31.68,0.02c-10.96,0.11-21.92,0.04-32.88,0.09
		c-9.51,0.05-19.04-0.03-28.56-0.1c-10.56-0.08-21.12-0.02-31.68-0.02s-21.12,0-31.68,0c-10.4,0-20.8,0-31.2,0
		c-11.2,0-22.4,0-33.6,0c-9.6,0-19.2,0-28.8,0c-10.4,0-20.8-0.08-31.2,0.02c-11.6,0.11-23.2,0.02-34.8,0.1
		c-9.19,0.06-18.4-0.04-27.6-0.1c-10.88-0.08-21.76-0.02-32.64-0.02c-10.08,0-20.16,0-30.24,0c-10.4,0-20.8,0-31.2,0
		c-2.88,0-2.88,0.01-2.88,2.88c0,53.66,0,107.31,0,160.97"/>
	<path class="st0" d="M134.14,387.9c-0.03,11.76,0.19,23.52-0.48,35.26"/>
	<path class="st0" d="M961.79,169.84c4.1,2.25,6.07,6.42,8.9,9.82c1.4,1.68,2.57,3.52,3.78,5.32c0.7,1.04,1.46,1.72,2.68,1.89"/>
	<path class="st0" d="M1635.39,389.34c-0.03,9.28,0.17,18.56-0.48,27.83"/>
	<path class="st0" d="M1151.13,168.88c-3.07,1.35-4.68,4.29-6.92,6.52c-3.44,3.44-6.6,7.15-9.88,10.75"/>
	<path class="st0" d="M381.31,375.91c0.04-0.44,0.29-0.73,0.72-0.71c10.96,0.39,21.92,0.03,32.88,0.1
		c10.56,0.06,21.12-0.01,31.68,0.14"/>
	<path class="st0" d="M45.83,62.61c-0.57,1.78-1.65,3.17-3.1,4.34c-0.62,0.49-1.31,1.01-1.45,1.9"/>
	<path class="st0" d="M1414.86,388.14c0,10.79,0,21.59,0,32.38"/>
	<path class="st0" d="M1103.62,389.34c-0.25,10.16-1.13,20.29-0.99,30.47c0.03,1.87,0.79,3.64,0.51,5.52"/>
	<path class="st0" d="M277.4,433.96c-0.76-2.05,0.21-4.15-0.19-6.25c-0.22-1.17-0.43-2.23-1.27-3.17c-2.87,0.67-2.92,3.98-5.02,5.34
		"/>
	<path class="st0" d="M1602.51,388.14c0,9.12,0,18.23,0,27.35"/>
	<path class="st0" d="M1728.26,211.58c0,49.42,0,98.83,0.01,148.25c0,0.88-0.17,1.79,0.23,2.64"/>
	<path class="st0" d="M938.04,449.79c0.17-1.77-0.97-3.29-0.99-5.04c-0.01-0.57-0.63-0.07-0.93-0.24"/>
	<path class="st0" d="M1695.62,24.23c3.92,4.72,7.69,9.57,11.8,14.12c4.32,4.77,9.24,8.97,15.11,11.73
		c4.41,2.07,8.92,1.89,12.93-1.37"/>
	<path class="st0" d="M1838.4,168.88c-1.81,0.86-2.99,2.46-4.3,3.86c-4.14,4.42-8.18,8.93-12.26,13.41"/>
	<path class="st0" d="M1540.6,388.14c0,7.6,0,15.19,0,22.79c0,1.44,0.07,2.89-0.24,4.32"/>
	<path class="st0" d="M1582.83,455.07c0.69-2.96-1.37-5.03-2.39-7.8c-1.95,1.9-2.12,4.21-2.65,6.36"/>
	<path class="st0" d="M1602.51,211.58c0,54.45,0,108.91,0,163.36"/>
	<path class="st0" d="M1063.78,424.36c10.72,0.48,21.43,1.05,32.16,1.39c4,0.13,8,0.27,12,0.49c5.44,0.3,10.88,0.58,16.32,0.96
		c3.47,0.24,4.47,0.32,4.29-3.56c-0.03-0.7,0.33-1.05,0.74-1.44"/>
	<path class="st0" d="M1339.27,168.88c-3.07,1.35-4.68,4.29-6.92,6.52c-3.44,3.44-6.6,7.15-9.88,10.75"/>
	<path class="st0" d="M478.02,211.58c0,54.45,0,108.91,0,163.36"/>
	<path class="st0" d="M1821.36,211.58c0.51,0.76,0.22,1.6,0.22,2.4c0.02,53.58,0.02,107.15,0.02,160.73"/>
	<path class="st0" d="M1588.83,168.88c-3.07,1.35-4.68,4.29-6.92,6.52c-3.44,3.44-6.6,7.15-9.88,10.75"/>
	<path class="st0" d="M1524.52,415.49c-2.61,0.59-5.26,0.65-7.92,0.49c-9.44-0.57-18.89,0-28.31,0.35c-8.48,0.31-16.97,1-25.45,1.69
		c-3.89,0.32-7.83,0.46-11.74,0.67c-3.52,0.19-7.06,0.19-10.57,0.82c-2.35,0.42-4.8,0.24-7.2,0.41c-3.03,0.21-6.07,0.47-9.11,0.67
		c-7.12,0.46-14.25,0.68-21.37,1.31c-3.73,0.33-7.52,0.14-11.28,0.51c-2.38,0.23-4.8,0.04-7.19,0.04"/>
	<path class="st0" d="M1086.58,474.02c-0.41-0.39-0.99-0.78-0.71-1.43c1.67-3.85,2.08-8.04,3.29-12.02
		c0.39-1.26,0.04-2.71,0.49-4.08c0.32-0.97-0.12-1.9-1.15-2.45c-1.96,0.58-3.04,2.27-4.02,3.71c-3.57,5.24-6.96,10.61-10.63,15.79
		c-0.9,1.27-1.07,2.2,0.96,2.16"/>
	<path class="st0" d="M1842.72,210.86c-4.4,0-8.8,0-13.2,0c-9.36,0-18.72,0-28.08,0c-4.09,0-8.18,0.18-12.24-0.48"/>
	<path class="st0" d="M1797.61,49.9c1.46,0.28,2.48,1.37,3.57,2.2c6.21,4.7,13.26,6.69,20.9,6.12c4.26-0.32,8.29-1.8,11.28-5.2"/>
	<path class="st0" d="M1790.89,192.15c0.02,2.09-0.23,4.17-0.48,6.24"/>
	<path class="st0" d="M57.11,63.57C53.1,68.19,48,70.05,42,69.27c-1.22-0.16-1.95,0.07-2.92,0.74c-2.15,1.48-4.2,3.1-6.67,4.17
		c-4.61,2.01-8.43,0.65-12-2.23c-0.8-0.64-1.51-1.44-2.43-1.87c-0.93-0.44-2.35-0.74-2.8,0.24c-1.69,3.67-4.88,3-7.74,2.77
		c-2.09-0.17-4.31-0.24-6.25-1.36"/>
	<path class="st0" d="M920.28,180.4c-1.84,1.76-2.64,4.3-4.56,6"/>
	<path class="st0" d="M268.29,423.64c0.76,0.44,0.78,1.17,0.72,1.92c-0.12,1.51,0.28,2.87,1.2,4.08"/>
	<path class="st0" d="M1009.79,211.58c0.67,3.12,0.13,6.25-0.07,9.35c-0.11,1.76-0.22,3.53-0.14,5.28
		c0.29,6.25-0.38,12.48-0.61,18.71c-0.18,5.11-0.54,10.25-0.98,15.35c-0.31,3.62,0.04,7.24-0.42,10.8
		c-0.63,4.88-0.11,9.78-0.47,14.64c-0.49,6.55-0.57,13.13-1.03,19.67c-0.39,5.61-0.62,11.23-0.27,16.79
		c0.61,9.68,0.16,19.36,0.39,29.03c0.01,0.4,0.15,0.8,0.23,1.2"/>
	<path class="st0" d="M9.12,387.66c0,10.87,0,21.75,0,32.62c0,0.96-0.11,1.94,0.24,2.88"/>
	<path class="st0" d="M464.34,423.16c-0.71,1.19-1.06,2.36-0.79,3.85c0.3,1.62,0.07,3.35,0.07,5.03"/>
	<path class="st0" d="M1649.55,169.84c4.1,2.25,6.07,6.42,8.9,9.82c1.4,1.68,2.57,3.52,3.78,5.32c0.7,1.04,1.46,1.72,2.68,1.89"/>
	<path class="st0" d="M165.34,211.34c-0.89-0.56-1.89-0.48-2.88-0.48c-8.32,0-16.64,0-24.96,0c-11.04,0-22.08,0-33.12,0
		c-10,0-20,0-30,0c-10.56,0-21.12,0-31.68,0c-10.16,0-20.32,0-30.48,0c-3.68,0-7.36,0-11.04,0"/>
	<path class="st0" d="M1842.48,375.19c-15.92,0.39-31.84,0.17-47.75,0.24"/>
	<path class="st0" d="M446.58,375.91c0.04-0.44,0.29-0.73,0.72-0.71c10.16,0.39,20.32,0.12,30.48,0.09
		c6.15-0.02,12.32,0.17,18.48,0.11c15.68-0.16,31.36,0.4,47.03-0.2c0.43-0.02,0.67,0.28,0.72,0.71"/>
	<path class="st0" d="M101.27,211.58c0.54,5.11-0.1,10.25,0.28,15.35c0.66,8.88-0.02,17.78,0.55,26.62
		c0.44,6.89,0.03,13.77,0.39,20.64c1.02,19.35,0.36,38.7,0.36,58.05c0,6.95-0.12,13.92-0.45,20.87c-0.33,6.96-0.93,13.9-0.87,20.87
		c0,0.45-0.49,0.74-0.13,1.34c0.63,0.28,1.47,0.09,2.27,0.09c9.12,0.02,18.24,0.01,27.36,0.01c10.24,0,20.48,0,30.72,0
		c10.4,0,20.8,0,31.2,0c10.72,0,21.44,0,32.16,0c0.96,0,1.94,0.11,2.88-0.24"/>
	<path class="st0" d="M1540.6,211.58c0,54.45,0,108.91,0,163.36"/>
	<path class="st0" d="M1676.9,25.91c1.48,1.9,3.61,2.96,5.52,4.32"/>
	<path class="st0" d="M1508.2,375.91c0.04-0.44,0.29-0.73,0.72-0.71c10.48,0.39,20.96,0.16,31.44,0.09
		c5.19-0.04,10.4,0.11,15.6,0.13c14.56,0.05,29.12,0.09,43.67,0c11.68-0.07,23.36,0.35,35.04-0.21c0.43-0.02,0.67,0.28,0.72,0.71"/>
	<path class="st0" d="M1289.35,389.34c0.05,11.84-0.47,23.68,0.48,35.5"/>
	<path class="st0" d="M1356.06,389.34c0.59,11.43,1.28,22.85,0.96,34.3"/>
	<path class="st0" d="M602.8,211.58c0,54.45,0,108.91,0,163.36"/>
	<path class="st0" d="M148.06,168.88c1.81,0.86,2.99,2.46,4.3,3.86c4.14,4.42,8.18,8.93,12.26,13.41"/>
	<path class="st0" d="M1507.72,389.34c-0.63,1.72-0.48,3.51-0.48,5.28c-0.01,6.96,0,13.91,0,20.87"/>
	<path class="st0" d="M1837.68,450.75c-1.62-1.29-3.85-0.49-5.54-1.64c-0.35-0.24-0.02,0.63-0.46,0.68"/>
	<path class="st0" d="M39.83,388.14c0,8.8,0,17.59,0,26.39c0,2.48-0.64,4.96,0,7.44"/>
	<path class="st0" d="M1027.79,168.88c-1.72,0.8-2.83,2.3-4.06,3.62c-3.9,4.18-7.7,8.45-11.54,12.69c-0.23,0.25-0.47,0.49-0.72,0.72
		c-2.11,1.93-3.66,1.86-5.26-0.49c-2.28-3.37-4.83-6.54-7.19-9.85c-1.62-2.27-3.4-4.29-5.8-5.73"/>
	<path class="st0" d="M1752.73,440.68c-1.54,1.25-1.93,3.19-2.88,4.8"/>
	<path class="st0" d="M1531,399.65c1.28,1.97,1,4.34,1.65,6.49c0.99,3.33,1.75,6.72,3.39,9.83"/>
	<path class="st0" d="M1782.73,57.81c0.95,4.74,3.74,8.27,7.16,11.55c5.44,5.21,13.55,4.6,20.2,0.2"/>
	<path class="st0" d="M679.35,428.68c-0.35,2.07-1.36,4.05-0.96,6.24"/>
	<path class="st0" d="M1654.34,398.94c-0.57-0.04-0.91,0.23-1.21,0.71c-3.41,5.56-7.11,10.93-10.78,16.32
		c-0.24,0.35-0.33,0.79-0.49,1.19"/>
	<path class="st0" d="M726.87,211.34c0,3.6,0.11,7.2-0.02,10.79c-0.22,6.17,0.51,12.31,0.6,18.47c0.08,5.11,0.59,10.24,0.93,15.35
		c0.5,7.44,0.68,14.87,1,22.31c0.18,4.24,0,8.51,0.42,12.71c1.49,14.78,0.83,29.59,0.81,44.38c-0.01,3.98-0.68,8.02-0.31,11.99
		c0.85,9.2,0.14,18.4,0.41,27.59"/>
	<path class="st0" d="M467.7,426.76c-0.77-0.05-1.33-0.77-1.37-1.21c-0.16-1.57-1.66-2.14-2.23-3.35"/>
	<path class="st0" d="M1187.61,459.39c0.36,1.65-0.61,3.17-0.48,4.8"/>
	<path class="st0" d="M1190.96,462.51c-1.52,1.04-3.04,2.08-4.56,3.12"/>
	<path class="st0" d="M1522.6,415.49c0.06-1.31-0.3-2.71,0.73-3.84c1.53,0.62,1.82,2.31,2.87,3.36"/>
	<path class="st0" d="M1039.54,211.58c0,54.45,0,108.91,0,163.36"/>
	<path class="st0" d="M1133.61,423.64c1.31,0.77,1.43,2.73,3.12,3.12"/>
	<path class="st0" d="M1711.7,168.88c-1.9,0.93-3.21,2.58-4.52,4.11c-3.75,4.4-8.08,8.28-11.54,12.94c-0.59,0.8-1.67,0.14-2.18,0.95
		"/>
	<path class="st0" d="M101.51,375.91c-0.04-0.44-0.29-0.75-0.72-0.71c-5.67,0.54-11.36,0.18-17.04,0.21
		c-13.6,0.07-27.2,0.02-40.79,0.02c-7.2,0-14.4,0.03-21.6-0.01c-6.64-0.04-13.28-0.15-19.92-0.23"/>
	<path class="st0" d="M1752.97,439.72c-0.21,1.67,1.1,2.83,1.44,4.32"/>
	<path class="st0" d="M352.75,211.58c0,54.37,0,108.75,0,163.12"/>
	<path class="st0" d="M665.67,211.58c0,54.45,0,108.91,0,163.36"/>
	<path class="st0" d="M1258.64,425.08c-0.77,0.38-1.6,0.23-2.4,0.23c-7.6,0.01-15.2-0.14-22.8,0.04
		c-10.72,0.25-21.43,0.79-32.15,1.01c-7.68,0.16-15.37,0.42-23.03,0.95c-9.37,0.64-18.72,0.14-28.08,0.42
		c-1.2,0.04-2.12-0.18-2.9-1.21c-2.96-3.92-6.34-7.51-8.89-11.75c-0.75-1.25-2.28-1.94-2.83-3.39c-0.1-0.27-0.18-0.71,0.22-0.95"/>
	<path class="st0" d="M1729.45,183.75c1.01,2.06,0.47,4.33,0.84,6.5c0.54,3.2,0.37,6.55,0.48,9.82c0.16,4.64,0.44,9.28,0.67,13.91
		c0.39,8.08,0.12,16.16,0.47,24.23c0.94,21.99,0.38,43.98,0.28,65.97c-0.03,7.26,0.11,14.57-0.43,21.82
		c-0.36,4.81,0.04,9.64-0.49,14.39c-0.4,3.62,0.01,7.24-0.44,10.8c-0.43,3.37-0.36,6.72-0.42,10.08c-0.01,0.33,0.15,0.71-0.23,0.96
		c-1.74,1.16-1.14,2.95-1.2,4.56c-0.1,2.64-0.16,5.28-0.24,7.92"/>
	<path class="st0" d="M853.33,211.1c0,45.1,0,90.2,0.01,135.3c0,0.88-0.17,1.79,0.23,2.64"/>
	<path class="st0" d="M1824.48,441.16c0.72,2.86,0.36,4.13-1.44,5.04"/>
	<path class="st0" d="M1181.61,169.84c4.1,2.25,6.11,6.39,8.88,9.83c1.05,1.3,2.04,2.63,2.91,4.06c0.32,0.52,0.68,1.14,1.65,1.02
		c1.38-0.16,1.19,0.99,1.19,1.87c0,3.92,0,7.84,0,11.75"/>
	<path class="st0" d="M1707.38,433.48c-0.61,1.12-1.18,2.27-2.4,2.88"/>
	<path class="st0" d="M1685.06,31.43c4.06,6,9.08,11.2,13.92,16.55c5.14,5.67,10.98,10.74,15.09,17.29
		c3.13,4.98,6.03,10.09,7.78,15.79c0.64,2.1,0.54,4.23,0.74,6.27c0.52,5.35,1.28,10.68,1.66,16.05c0.33,4.8,0.97,9.59,1.42,14.39
		c0.5,5.36,1.05,10.7,1.44,16.07c0.33,4.56,0.66,9.11,0.97,13.67c0.42,6.24,0.5,12.5,1.03,18.7c0.39,4.64,0,9.3,0.74,13.94
		c0.47,3-1.6,5.34-4.87,6.52c-2.96-3.99-5.85-8.1-8.9-12.09c-1.46-1.91-3.08-3.51-5.09-4.76"/>
	<path class="st0" d="M525.05,169.84c-4.1,2.25-6.07,6.42-8.9,9.82c-1.4,1.68-2.47,3.58-3.82,5.29c-0.58,0.74-0.87,1.74-2.16,1.72
		c-0.69-0.01-1.08,0.63-0.96,1.4c0.54,3.43,0.09,6.88,0.24,10.32"/>
	<path class="st0" d="M9.36,425.32c-0.57-0.44,0.17-1.26-1.04-1.68c2.81-0.87,5.22-0.59,7.52-0.65c18.47-0.45,36.95-0.94,55.43-0.94
		c9.19,0,18.4,0.03,27.6,0.13c5.6,0.06,11.2,0.12,16.8-0.02c6.22-0.15,12.31,1.23,18.48,1.4c3.85,0.1,7.66,0.67,11.52,0.56
		c6.56-0.18,13.12,0.52,19.67,0.73c6.12,0.19,12.31,0.87,18.48,1.26c10.4,0.66,20.8,0.87,31.2,1.4c4.72,0.24,9.55-0.2,14.13,0.4
		c9.31,1.21,18.59,0.39,27.86,0.75c2.49,0.1,5.01-0.45,7.44,0.49"/>
	<path class="st0" d="M927.48,474.26c-0.15,0.79,0.52,1.96-0.96,2.16"/>
	<path class="st0" d="M1400.7,168.88c-2.97,1.29-4.53,4.11-6.68,6.28c-3.43,3.45-6.6,7.16-9.88,10.76"/>
	<path class="st0" d="M773.9,168.88c2.97,1.29,4.53,4.11,6.68,6.28c3.43,3.45,6.6,7.16,9.88,10.76"/>
	<path class="st0" d="M1431.17,169.84c4.1,2.25,6.13,6.37,8.87,9.84c1.1,1.39,2.14,2.84,3.11,4.32c0.55,0.84,1.12,1.41,2.18,1.19"/>
	<path class="st0" d="M1696.58,211.58c0.51,0.76,0.22,1.6,0.22,2.4c0.02,53.58,0.02,107.15,0.02,160.73"/>
	<path class="st0" d="M305.48,169.84c-2.4,1.44-4.21,3.43-5.79,5.74c-1.87,2.73-4,5.28-5.96,7.94c-1.54,2.1-2.46,2.35-4.3,0.44
		c-3.38-3.5-6.67-7.09-9.91-10.73c-1.41-1.6-2.76-3.36-4.76-4.35"/>
	<path class="st0" d="M1227.2,211.58c0,54.45,0,108.91,0,163.36"/>
	<path class="st0" d="M1179.21,442.6c1.56,4,0.04,8.18,0.71,12.24c0.19,1.18-0.22,2.42,0.25,3.6"/>
	<path class="st0" d="M365.95,168.88c2.76,1.18,4.22,3.78,6.21,5.78c2.75,2.77,5.28,5.76,7.96,8.59c0.97,1.03,1.88,1.81,0.78,3.42
		c-0.45,0.65-0.29,1.93-0.04,2.82c0.83,2.95,0.26,5.93,0.44,8.89"/>
	<path class="st0" d="M1727.78,387.42c-18.32,0-36.64,0-54.95,0c-22.48,0-44.95,0-67.43,0c-10.24,0-20.48,0-30.72,0
		c-10.4,0-20.8,0-31.2,0c-20.96,0-41.91,0-62.87,0c-20.88,0-41.75,0-62.63,0c-10.32,0-20.64,0-30.96,0c-20.96,0-41.91,0-62.87,0
		s-41.91,0-62.87,0c-10.4,0-20.8,0-31.2,0c-20.64,0-41.28-0.07-61.91,0.03c-11.44,0.05-22.88,0.17-34.31,0.09
		c-20.08-0.12-40.16,0.01-60.23-0.11c-8.96-0.06-17.92-0.02-26.88,0c-2.73,0-5.47-0.24-8.16,0.47"/>
	<path class="st0" d="M1370.46,168.88c-0.86,0.19-1.37,0.86-1.91,1.44c-4.6,4.92-9.18,9.86-13.49,14.5
		c0.97,4.75,0.57,9.15,0.04,13.56"/>
	<path class="st0" d="M1510.12,211.34c0,24.15-0.12,48.3,0.04,72.45c0.1,14.47,0.77,28.95,0.36,43.42
		c-0.23,7.92-0.15,15.84-0.49,23.75c-0.22,5.03-0.33,10.11-0.97,15.1c-0.4,3.05-0.02,6.12-0.62,9.13"/>
	<path class="st0" d="M542.09,184.95c-0.17,0.89,0.8,1.2,0.96,1.92"/>
	<path class="st0" d="M1477.73,211.58c0,54.45,0,108.91,0,163.36"/>
	<path class="st0" d="M107.75,42.94c1.16,1.05,1.68,2.53,2.35,3.86c1.13,2.25-0.09,5.83-2.35,7.65c-4.01,3.22-8.53,5.7-12.81,8.5
		c-2.84,1.86-6.56,2.39-10,2.95c-1.82,0.3-2.42,1.08-2.14,2.7c0.93,5.35-1.21,9.19-5.49,12.29c-2.37,1.71-4.35,3.95-6.52,5.95
		c-2.91,2.69-6.48,3.76-10.32,4.06c-2.17,0.17-4.17,0.96-6.21,1.55c-1,0.29-1.46,1.55-1.76,2.78c-0.61,2.52-0.8,5.21-2.34,7.45
		c-2.84,4.1-7.29,5.18-11.76,5.96c-5.2,0.91-10.41,0.86-15.6-0.41c-2.1-0.51-3.84,0.42-4.26,2.38c-0.92,4.31-3.73,7.4-6.85,9.96
		c-3.13,2.57-6.45,5.12-10.48,6.34"/>
	<path class="st0" d="M571.61,211.58c-0.51,0.76-0.22,1.6-0.22,2.4c-0.02,53.58-0.02,107.15-0.02,160.73"/>
	<path class="st0" d="M1643.55,417.17c-2.56-0.64-3.17,1.97-4.8,2.88"/>
	<path class="st0" d="M1607.79,10.32c5.61,4.42,11.86,7.81,18.75,9.44c3.8,0.9,8.02,0.61,11.93-0.42c0.92-0.24,1.79-0.19,2.67-0.38"
		/>
	<path class="st0" d="M289.64,211.34c-0.69,11.99-0.91,23.99-0.68,35.98c0.32,16.55,0.23,33.11,0.12,49.66
		c-0.05,7.19-0.68,14.39-1.01,21.58c-0.13,2.79-0.12,5.61-0.37,8.4c-1.35,15.49-0.86,31.02-0.92,46.54c0,0.6-0.3,1.1-0.26,1.92
		c31.59,0,63.19,0,94.78,0"/>
	<path class="st0" d="M922.68,176.32c-0.2,0.56-0.5,1.12,0,1.68"/>
	<path class="st0" d="M822.13,374.71c0.32,0.16,0.64,0.32,0.96,0.48"/>
	<path class="st0" d="M134.38,211.58c-0.51,0.76-0.22,1.6-0.22,2.4c-0.02,53.58-0.02,107.15-0.02,160.73"/>
	<path class="st0" d="M1811.52,17.51c2.9,2.66,5.63,5.65,9.61,6.69c5.17,1.36,10.22,0.72,15.12-1.4c2.66-1.14,5.48-1.98,6.95-4.81"
		/>
	<path class="st0" d="M1165.29,211.58c0,54.45,0,108.91,0,163.36"/>
	<path class="st0" d="M415.15,211.58c0,54.45,0,108.91,0,163.36"/>
	<path class="st0" d="M915.72,211.1c0,35.18,0,70.37,0,105.86c-12.37-1.8-22.92,0.64-29.94,11.73c-1.31-0.89-1.01-2.2-1.01-3.4
		c0-38.14,0-76.28,0-114.43"/>
	<path class="st0" d="M1643.79,13.67c1.94,0.82,2.38,2.89,3.58,4.34c4.15,5.01,9.24,8,15.85,8.69c6.89,0.71,13.17-0.78,19.21-3.89
		c2.82-1.45,4.55-4.11,6.91-6.13c2.11,1.95,4.24,3.68,6.99,4.46c3.8,1.08,7.62,1.03,11.26-0.32c3.13-1.16,4.84-3.76,5.03-7.13
		c0.07-1.28,1.08-2.5,0.28-3.84"/>
	<path class="st0" d="M71.51,211.58c-0.51,0.76-0.22,1.6-0.22,2.4c-0.02,53.58-0.02,107.15-0.02,160.73"/>
	<path class="st0" d="M8.4,211.58c0,54.37,0,108.75,0,163.12"/>
	<path class="st0" d="M101.03,389.34c0,4.16,0.07,8.32-0.02,12.47c-0.1,4.26,0.64,8.48,0.67,12.71c0.01,2.39-0.12,4.8-0.17,7.2"/>
	<path class="st0" d="M322.04,211.58c-0.51,0.76-0.22,1.6-0.22,2.4c-0.02,53.58-0.02,107.15-0.02,160.73"/>
	<path class="st0" d="M259.17,211.58c-0.51,0.76-0.22,1.6-0.22,2.4c-0.02,53.58-0.02,107.15-0.02,160.73"/>
	<path class="st0" d="M1133.61,211.58c0.51,0.76,0.22,1.6,0.22,2.4c0.02,53.58,0.02,107.15,0.02,160.73"/>
	<path class="st0" d="M226.53,211.58c-0.55,2.87-0.33,5.77-0.2,8.63c0.69,14.95,0.77,29.92,0.34,44.86
		c-0.71,24.87-0.26,49.74-0.26,74.61c0,5.1,0.06,10.25,0.4,15.35c0.33,4.96,0.78,9.9,1.01,14.87c0.08,1.66,0.36,3.35,0.39,5.04"/>
	<path class="st0" d="M1635.39,211.34c-0.33,9.83-0.24,19.68-0.62,29.5c-0.28,7.29,0.09,14.57-0.38,21.83
		c-0.92,14.23-0.14,28.47-0.45,42.7c-0.05,2.48-0.44,4.96-0.44,7.44c0,11.2,0.52,22.38,0.59,33.58c0.02,4.06-0.07,8.19,0.44,12.22
		c0.44,3.46,0.15,6.89,0.42,10.32c0.16,2.08,0.86,4.13,0.14,6.29c0.83,0.37,1.67,0.18,2.47,0.18c18.72,0.01,37.44,0.01,56.15,0.01
		c10.64,0,21.28-0.04,31.92,0.05c1.44,0.01,2.88-1.09,4.32-0.05"/>
	<path class="st0" d="M1258.4,211.58c0.51,0.76,0.22,1.6,0.22,2.4c0.02,53.58,0.02,107.15,0.02,160.73"/>
	<path class="st0" d="M509.69,211.58c-0.51,0.76-0.22,1.6-0.22,2.4c-0.02,53.58-0.02,107.15-0.02,160.73"/>
	<path class="st0" d="M196.29,211.58c-0.51,0.76-0.22,1.6-0.22,2.4c-0.02,53.58-0.02,107.15-0.02,160.73"/>
	<path class="st0" d="M697.35,211.58c-0.51,0.76-0.22,1.6-0.22,2.4c-0.02,53.58-0.02,107.15-0.02,160.73"/>
	<path class="st0" d="M1070.74,211.58c0.51,0.76,0.22,1.6,0.22,2.4c0.02,53.58,0.02,107.15,0.02,160.73"/>
	<path class="st0" d="M1571.56,211.58c0,54.37,0,108.75,0,163.12"/>
	<path class="st0" d="M1383.9,211.58c0,54.37,0,108.75,0,163.12"/>
	<path class="st0" d="M1447.01,211.58c0.08,0.08,0.23,0.16,0.23,0.24c-0.34,5.37,0.51,10.71,0.5,16.07
		c-0.03,25.19-0.11,50.38,0.05,75.56c0.04,6.63,0.65,13.27,1.02,19.9c0.16,2.88,0,5.79,0.39,8.64c0.64,4.72,0.06,9.47,0.5,14.15
		c0.88,9.28,0.11,18.56,0.44,27.83c0.02,0.46-0.49,0.74-0.07,1.44c19.24,0,38.68,0,58.12,0"/>
	<path class="st0" d="M821.89,210.86c0,53.9,0,107.79,0.01,161.69c0,3.02,0.13,2.93-2.89,2.88c-9.44-0.15-18.88,0.27-28.32-0.19
		c-1-0.05-2.07,0.19-3.12,0.19c-28.96,0-57.91,0-86.87,0c-10.72,0-21.44,0-32.16,0c-11.92,0-23.84,0-36.24,0
		c0-12.23,0.07-24.47-0.06-36.7c-0.02-2.23-0.15-4.48-0.17-6.72c-0.1-8.48,0.11-16.97-0.3-25.43c-1.49-31.34-0.68-62.69-0.9-94.04
		c0-0.33-0.16-0.72,0.23-0.96"/>
	<path class="st0" d="M1.2,198.87c11.6,0,23.2,0.07,34.8-0.02c11.76-0.1,23.52-0.17,35.27-0.1c20.08,0.12,40.16-0.01,60.23,0.11
		c10.4,0.06,20.8,0.08,31.2-0.01c11.12-0.1,22.24-0.18,33.36-0.1c20.08,0.13,40.16,0.05,60.23,0.09
		c11.28,0.02,22.56-0.16,33.83-0.09c19.92,0.13,39.84,0.03,59.75,0.11c20.8,0.08,41.59,0.08,62.39-0.01
		c11.44-0.05,22.88-0.04,34.32-0.09c9.67-0.05,19.36,0.11,29.04,0.08c11.28-0.03,22.56-0.16,33.83-0.09
		c19.76,0.13,39.52-0.01,59.27,0.11c10.56,0.06,21.12,0.08,31.68-0.01c10.48-0.09,20.96-0.08,31.44-0.1
		c10.47-0.01,20.96,0.1,31.44,0.08c11.28-0.02,22.56-0.16,33.83-0.09c19.44,0.12,38.88-0.01,58.31,0.11
		c10.72,0.07,21.44,0.01,32.16,0.01c8.16,0,16.32,0.2,24.48-0.05c12.96-0.39,25.92-0.08,38.88-0.18
		c10.08-0.07,20.16-0.01,30.24-0.01c10.56,0,21.12,0.02,31.68-0.01c10.24-0.03,20.47,0.37,30.72,0.27c10.4-0.1,20.8-0.02,31.2-0.02
		c10.72,0,21.44,0,32.16,0c10.08,0,20.16,0.07,30.24-0.02c11.28-0.1,22.56-0.07,33.84-0.1c10.47-0.03,20.96,0.1,31.44,0.08
		c10.48-0.02,20.96-0.05,31.44-0.08c9.67-0.03,19.36,0.11,29.04,0.08c11.12-0.03,22.24-0.03,33.36-0.08
		c9.51-0.04,19.04,0.1,28.56,0.08c11.28-0.02,22.56-0.16,33.83-0.09c20.08,0.13,40.16-0.01,60.23,0.11
		c11.2,0.07,22.4,0.01,33.6,0.01c9.44,0,18.88,0,28.32,0c10.56,0,21.12,0.07,31.68-0.02c11.28-0.1,22.56-0.05,33.84-0.1
		c9.67-0.04,19.36,0.11,29.04,0.08c11.6-0.03,23.2-0.02,34.8-0.08c9.19-0.05,18.4,0.03,27.6,0.1c10.24,0.08,20.48,0.02,30.72,0.02
		c10.4,0,20.8,0,31.2,0c10.88,0,21.76,0,32.64,0c10.24,0,20.48,0.07,30.72-0.02c11.28-0.1,22.56-0.05,33.84-0.1
		c9.51-0.04,19.04-0.03,28.56,0.11c1.6,0.02,3.21,0.07,4.8-0.23"/>
</g>
</svg>
